<mxfile modified="2020-01-03T01:33:49.849Z" host="www.draw.io" agent="Mozilla/5.0 (Windows NT 10.0; Win64; x64) AppleWebKit/537.36 (KHTML, like Gecko) Chrome/79.0.3945.88 Safari/537.36" etag="NBtRhSvJNwwXLHpgPT8J" version="12.4.8" type="github" pages="6">
  <diagram id="f766WmHzztAEVAHGolFx" name="Page-1">
    <mxGraphModel dx="2873" dy="1296" grid="0" gridSize="5" guides="1" tooltips="1" connect="1" arrows="1" fold="1" page="0" pageScale="1" pageWidth="827" pageHeight="1169" background="#FFFFFF" math="0" shadow="0">
      <root>
        <mxCell id="0"/>
        <mxCell id="1" parent="0"/>
        <mxCell id="_mkomFzHhzRM6zaE41Vr-2" value="管理员用户" style="shape=umlActor;verticalLabelPosition=bottom;labelBackgroundColor=#ffffff;verticalAlign=top;html=1;fontSize=10.5;fontFamily=宋体;fontStyle=0" parent="1" vertex="1">
          <mxGeometry x="-872" y="537.5" width="30" height="59" as="geometry"/>
        </mxCell>
        <mxCell id="_mkomFzHhzRM6zaE41Vr-5" value="管理员登录" style="ellipse;whiteSpace=wrap;html=1;fontSize=10.5;fontFamily=宋体;fontStyle=0" parent="1" vertex="1">
          <mxGeometry x="-770" y="439" width="101" height="37" as="geometry"/>
        </mxCell>
        <mxCell id="_mkomFzHhzRM6zaE41Vr-6" value="图书管理" style="ellipse;whiteSpace=wrap;html=1;fontSize=10.5;fontFamily=宋体;fontStyle=0" parent="1" vertex="1">
          <mxGeometry x="-770" y="492.5" width="102" height="35" as="geometry"/>
        </mxCell>
        <mxCell id="_mkomFzHhzRM6zaE41Vr-7" value="订单管理" style="ellipse;whiteSpace=wrap;html=1;fontSize=10.5;fontFamily=宋体;fontStyle=0" parent="1" vertex="1">
          <mxGeometry x="-770" y="548" width="100" height="34" as="geometry"/>
        </mxCell>
        <mxCell id="_mkomFzHhzRM6zaE41Vr-9" value="管理员注销" style="ellipse;whiteSpace=wrap;html=1;fontSize=10.5;fontFamily=宋体;fontStyle=0" parent="1" vertex="1">
          <mxGeometry x="-769" y="596.5" width="100" height="34" as="geometry"/>
        </mxCell>
        <mxCell id="_mkomFzHhzRM6zaE41Vr-10" value="浏览订单" style="ellipse;whiteSpace=wrap;html=1;fontSize=10.5;fontFamily=宋体;fontStyle=0" parent="1" vertex="1">
          <mxGeometry x="-577" y="568" width="100" height="34" as="geometry"/>
        </mxCell>
        <mxCell id="_mkomFzHhzRM6zaE41Vr-11" value="订单状态维护" style="ellipse;whiteSpace=wrap;html=1;fontSize=10.5;fontFamily=宋体;fontStyle=0" parent="1" vertex="1">
          <mxGeometry x="-583" y="614.5" width="100" height="34" as="geometry"/>
        </mxCell>
        <mxCell id="_mkomFzHhzRM6zaE41Vr-12" value="查看未发货订单" style="ellipse;whiteSpace=wrap;html=1;fontSize=10.5;fontFamily=宋体;fontStyle=0" parent="1" vertex="1">
          <mxGeometry x="-453" y="617.5" width="100" height="34" as="geometry"/>
        </mxCell>
        <mxCell id="_mkomFzHhzRM6zaE41Vr-14" value="" style="endArrow=open;endFill=1;endSize=12;html=1;fontSize=10.5;entryX=0;entryY=0.5;entryDx=0;entryDy=0;fontFamily=宋体;fontStyle=0" parent="1" target="_mkomFzHhzRM6zaE41Vr-5" edge="1">
          <mxGeometry width="160" relative="1" as="geometry">
            <mxPoint x="-833" y="556" as="sourcePoint"/>
            <mxPoint x="-715" y="641" as="targetPoint"/>
          </mxGeometry>
        </mxCell>
        <mxCell id="_mkomFzHhzRM6zaE41Vr-15" value="" style="endArrow=open;endFill=1;endSize=12;html=1;fontSize=10.5;entryX=0;entryY=0.5;entryDx=0;entryDy=0;fontFamily=宋体;fontStyle=0" parent="1" target="_mkomFzHhzRM6zaE41Vr-6" edge="1">
          <mxGeometry width="160" relative="1" as="geometry">
            <mxPoint x="-825" y="567" as="sourcePoint"/>
            <mxPoint x="-765" y="463" as="targetPoint"/>
          </mxGeometry>
        </mxCell>
        <mxCell id="_mkomFzHhzRM6zaE41Vr-16" value="" style="endArrow=open;endFill=1;endSize=12;html=1;fontSize=10.5;entryX=0;entryY=0.5;entryDx=0;entryDy=0;fontFamily=宋体;fontStyle=0" parent="1" target="_mkomFzHhzRM6zaE41Vr-7" edge="1">
          <mxGeometry width="160" relative="1" as="geometry">
            <mxPoint x="-824" y="576" as="sourcePoint"/>
            <mxPoint x="-760" y="468" as="targetPoint"/>
          </mxGeometry>
        </mxCell>
        <mxCell id="_mkomFzHhzRM6zaE41Vr-17" value="" style="endArrow=open;endFill=1;endSize=12;html=1;fontSize=10.5;entryX=0;entryY=0.5;entryDx=0;entryDy=0;fontFamily=宋体;fontStyle=0" parent="1" target="_mkomFzHhzRM6zaE41Vr-9" edge="1">
          <mxGeometry width="160" relative="1" as="geometry">
            <mxPoint x="-821" y="585" as="sourcePoint"/>
            <mxPoint x="-755" y="473" as="targetPoint"/>
          </mxGeometry>
        </mxCell>
        <mxCell id="_mkomFzHhzRM6zaE41Vr-18" value="Use" style="endArrow=open;endSize=12;dashed=1;html=1;fontSize=10.5;exitX=1;exitY=0.5;exitDx=0;exitDy=0;entryX=0.02;entryY=0.779;entryDx=0;entryDy=0;entryPerimeter=0;fontFamily=Times new Roman;fontStyle=0" parent="1" source="_mkomFzHhzRM6zaE41Vr-7" target="_mkomFzHhzRM6zaE41Vr-10" edge="1">
          <mxGeometry width="160" relative="1" as="geometry">
            <mxPoint x="-875" y="641" as="sourcePoint"/>
            <mxPoint x="-715" y="641" as="targetPoint"/>
          </mxGeometry>
        </mxCell>
        <mxCell id="_mkomFzHhzRM6zaE41Vr-20" value="Use" style="endArrow=open;endSize=12;dashed=1;html=1;fontSize=10.5;entryX=0;entryY=0.5;entryDx=0;entryDy=0;fontFamily=Times new Roman;fontStyle=0" parent="1" target="_mkomFzHhzRM6zaE41Vr-11" edge="1">
          <mxGeometry width="160" relative="1" as="geometry">
            <mxPoint x="-666" y="568" as="sourcePoint"/>
            <mxPoint x="-715" y="641" as="targetPoint"/>
          </mxGeometry>
        </mxCell>
        <mxCell id="_mkomFzHhzRM6zaE41Vr-40" value="查看图书信息" style="ellipse;whiteSpace=wrap;html=1;fontSize=10.5;fontFamily=宋体;fontStyle=0" parent="1" vertex="1">
          <mxGeometry x="-642" y="388.5" width="100" height="34" as="geometry"/>
        </mxCell>
        <mxCell id="_mkomFzHhzRM6zaE41Vr-42" value="查看图书类别" style="ellipse;whiteSpace=wrap;html=1;fontSize=10.5;fontFamily=宋体;fontStyle=0" parent="1" vertex="1">
          <mxGeometry x="-617" y="434" width="100" height="34" as="geometry"/>
        </mxCell>
        <mxCell id="_mkomFzHhzRM6zaE41Vr-43" value="查看图书优惠券" style="ellipse;whiteSpace=wrap;html=1;fontSize=10.5;fontFamily=宋体;fontStyle=0" parent="1" vertex="1">
          <mxGeometry x="-592" y="477" width="100" height="34" as="geometry"/>
        </mxCell>
        <mxCell id="_mkomFzHhzRM6zaE41Vr-44" value="查看图书折扣" style="ellipse;whiteSpace=wrap;html=1;fontSize=10.5;fontFamily=宋体;fontStyle=0" parent="1" vertex="1">
          <mxGeometry x="-579" y="522.5" width="100" height="34" as="geometry"/>
        </mxCell>
        <mxCell id="_mkomFzHhzRM6zaE41Vr-46" value="查看历史订单" style="ellipse;whiteSpace=wrap;html=1;fontSize=10.5;fontFamily=宋体;fontStyle=0" parent="1" vertex="1">
          <mxGeometry x="-456.5" y="517.5" width="100" height="34" as="geometry"/>
        </mxCell>
        <mxCell id="_mkomFzHhzRM6zaE41Vr-47" value="删除订单" style="ellipse;whiteSpace=wrap;html=1;fontSize=10.5;fontFamily=宋体;fontStyle=0" parent="1" vertex="1">
          <mxGeometry x="-612" y="653" width="126" height="31" as="geometry"/>
        </mxCell>
        <mxCell id="_mkomFzHhzRM6zaE41Vr-50" value="Use" style="endArrow=open;endSize=12;dashed=1;html=1;fontSize=10.5;exitX=1;exitY=0.5;exitDx=0;exitDy=0;entryX=0;entryY=0.5;entryDx=0;entryDy=0;fontFamily=Times new Roman;fontStyle=0" parent="1" source="_mkomFzHhzRM6zaE41Vr-6" target="_mkomFzHhzRM6zaE41Vr-40" edge="1">
          <mxGeometry width="160" relative="1" as="geometry">
            <mxPoint x="-665" y="570" as="sourcePoint"/>
            <mxPoint x="-560" y="582" as="targetPoint"/>
          </mxGeometry>
        </mxCell>
        <mxCell id="_mkomFzHhzRM6zaE41Vr-51" value="Use" style="endArrow=open;endSize=12;dashed=1;html=1;fontSize=10.5;entryX=0.04;entryY=0.765;entryDx=0;entryDy=0;entryPerimeter=0;fontFamily=Times new Roman;fontStyle=0" parent="1" target="_mkomFzHhzRM6zaE41Vr-42" edge="1">
          <mxGeometry width="160" relative="1" as="geometry">
            <mxPoint x="-666" y="507" as="sourcePoint"/>
            <mxPoint x="-555" y="587" as="targetPoint"/>
          </mxGeometry>
        </mxCell>
        <mxCell id="_mkomFzHhzRM6zaE41Vr-52" value="Use" style="endArrow=open;endSize=12;dashed=1;html=1;fontSize=10.5;entryX=0.04;entryY=0.735;entryDx=0;entryDy=0;entryPerimeter=0;fontFamily=Times new Roman;fontStyle=0" parent="1" target="_mkomFzHhzRM6zaE41Vr-43" edge="1">
          <mxGeometry width="160" relative="1" as="geometry">
            <mxPoint x="-666" y="508" as="sourcePoint"/>
            <mxPoint x="-550" y="592" as="targetPoint"/>
          </mxGeometry>
        </mxCell>
        <mxCell id="_mkomFzHhzRM6zaE41Vr-53" value="Use" style="endArrow=open;endSize=12;dashed=1;html=1;fontSize=10.5;entryX=0;entryY=0.5;entryDx=0;entryDy=0;fontFamily=Times new Roman;fontStyle=0" parent="1" target="_mkomFzHhzRM6zaE41Vr-44" edge="1">
          <mxGeometry width="160" relative="1" as="geometry">
            <mxPoint x="-664" y="512" as="sourcePoint"/>
            <mxPoint x="-545" y="597" as="targetPoint"/>
          </mxGeometry>
        </mxCell>
        <mxCell id="_mkomFzHhzRM6zaE41Vr-54" value="Use" style="endArrow=open;endSize=12;dashed=1;html=1;fontSize=10.5;entryX=0.03;entryY=0.3;entryDx=0;entryDy=0;fontFamily=Times new Roman;exitX=1;exitY=0.5;exitDx=0;exitDy=0;entryPerimeter=0;fontStyle=0" parent="1" source="_mkomFzHhzRM6zaE41Vr-7" target="_mkomFzHhzRM6zaE41Vr-47" edge="1">
          <mxGeometry width="160" relative="1" as="geometry">
            <mxPoint x="-661" y="573" as="sourcePoint"/>
            <mxPoint x="-568" y="619.4285714285714" as="targetPoint"/>
          </mxGeometry>
        </mxCell>
        <mxCell id="_mkomFzHhzRM6zaE41Vr-55" value="Use" style="endArrow=open;endSize=12;dashed=1;html=1;fontSize=10.5;fontFamily=Times new Roman;exitX=1;exitY=0.5;exitDx=0;exitDy=0;fontStyle=0" parent="1" source="_mkomFzHhzRM6zaE41Vr-10" target="_mkomFzHhzRM6zaE41Vr-46" edge="1">
          <mxGeometry width="160" relative="1" as="geometry">
            <mxPoint x="-645" y="682" as="sourcePoint"/>
            <mxPoint x="-570" y="599.2857142857143" as="targetPoint"/>
          </mxGeometry>
        </mxCell>
        <mxCell id="_mkomFzHhzRM6zaE41Vr-56" value="Use" style="endArrow=open;endSize=12;dashed=1;html=1;fontSize=10.5;fontFamily=Times new Roman;fontStyle=0" parent="1" target="_mkomFzHhzRM6zaE41Vr-12" edge="1">
          <mxGeometry width="160" relative="1" as="geometry">
            <mxPoint x="-472" y="586" as="sourcePoint"/>
            <mxPoint x="-565" y="604.2857142857143" as="targetPoint"/>
          </mxGeometry>
        </mxCell>
        <mxCell id="_mkomFzHhzRM6zaE41Vr-57" value="图书共享数据同步" style="ellipse;whiteSpace=wrap;html=1;fontSize=10.5;fontFamily=宋体;fontStyle=0" parent="1" vertex="1">
          <mxGeometry x="-747" y="645" width="100" height="34" as="geometry"/>
        </mxCell>
        <mxCell id="_mkomFzHhzRM6zaE41Vr-59" value="" style="endArrow=open;endFill=1;endSize=12;html=1;fontSize=10.5;entryX=0;entryY=0.5;entryDx=0;entryDy=0;fontFamily=宋体;fontStyle=0" parent="1" target="_mkomFzHhzRM6zaE41Vr-57" edge="1">
          <mxGeometry width="160" relative="1" as="geometry">
            <mxPoint x="-819" y="599" as="sourcePoint"/>
            <mxPoint x="-764" y="619" as="targetPoint"/>
          </mxGeometry>
        </mxCell>
        <mxCell id="aWHWJIVktm57PcOYF1WG-3" value="&lt;p style=&quot;margin: 4px 0px 0px ; text-align: center ; font-size: 11px&quot;&gt;&lt;span lang=&quot;EN-US&quot;&gt;AmsUser&lt;/span&gt;&lt;br&gt;&lt;/p&gt;&lt;hr style=&quot;font-size: 11px&quot;&gt;&lt;p style=&quot;margin: 0px 0px 0px 4px ; font-size: 11px&quot;&gt;&lt;font style=&quot;font-size: 11px&quot;&gt;+ userName : String&lt;/font&gt;&lt;/p&gt;&lt;p style=&quot;margin: 0px 0px 0px 4px ; font-size: 11px&quot;&gt;&lt;font style=&quot;font-size: 11px&quot;&gt;+ password : String&lt;br&gt;&lt;/font&gt;&lt;/p&gt;&lt;p style=&quot;margin: 0px 0px 0px 4px ; font-size: 11px&quot;&gt;&lt;font style=&quot;font-size: 11px&quot;&gt;+ passwordSalt : String&lt;br&gt;&lt;/font&gt;&lt;/p&gt;&lt;p style=&quot;margin: 0px 0px 0px 4px ; font-size: 11px&quot;&gt;&lt;font style=&quot;font-size: 11px&quot;&gt;+ roles : list&amp;lt;Role&amp;gt;&lt;/font&gt;&lt;/p&gt;&lt;hr style=&quot;font-size: 11px&quot;&gt;&lt;p style=&quot;margin: 0px 0px 0px 4px ; font-size: 11px&quot;&gt;&lt;font style=&quot;font-size: 11px&quot;&gt;+&amp;nbsp;&lt;span lang=&quot;EN-US&quot;&gt;setUserName&lt;/span&gt;(String name): void&lt;/font&gt;&lt;/p&gt;&lt;p style=&quot;margin: 0px 0px 0px 4px ; font-size: 11px&quot;&gt;&lt;font style=&quot;font-size: 11px&quot;&gt;+&amp;nbsp;&lt;span lang=&quot;EN-US&quot;&gt;setPassword&lt;/span&gt;(String psw): void&lt;br&gt;&lt;/font&gt;&lt;/p&gt;&lt;p style=&quot;margin: 0px 0px 0px 4px ; font-size: 11px&quot;&gt;&lt;font style=&quot;font-size: 11px&quot;&gt;+&amp;nbsp;&lt;span lang=&quot;EN-US&quot;&gt;setPasswordSalt&lt;/span&gt;(String salt): void&lt;br&gt;&lt;/font&gt;&lt;/p&gt;&lt;p style=&quot;margin: 0px 0px 0px 4px ; font-size: 11px&quot;&gt;&lt;font style=&quot;font-size: 11px&quot;&gt;+&amp;nbsp;&lt;span lang=&quot;EN-US&quot;&gt;setRoles&lt;/span&gt;(List&amp;lt;AmsRole&amp;gt;): List&amp;lt;AmsRole&amp;gt;&lt;/font&gt;&lt;/p&gt;&lt;br&gt;" style="verticalAlign=top;align=left;overflow=fill;fontSize=10.5;fontFamily=Times new Roman;html=1;strokeWidth=1;" parent="1" vertex="1">
          <mxGeometry x="-867" y="786" width="245" height="165" as="geometry"/>
        </mxCell>
        <mxCell id="aWHWJIVktm57PcOYF1WG-8" value="&lt;p style=&quot;margin: 4px 0px 0px ; text-align: center ; font-size: 11px&quot;&gt;&lt;span lang=&quot;EN-US&quot;&gt;AmsRole&lt;/span&gt;&lt;br&gt;&lt;/p&gt;&lt;hr style=&quot;font-size: 11px&quot;&gt;&lt;p style=&quot;margin: 0px 0px 0px 4px ; font-size: 11px&quot;&gt;&lt;font style=&quot;font-size: 11px&quot;&gt;+ id: int&lt;/font&gt;&lt;/p&gt;&lt;p style=&quot;margin: 0px 0px 0px 4px ; font-size: 11px&quot;&gt;&lt;font style=&quot;font-size: 11px&quot;&gt;+ name: String&lt;/font&gt;&lt;/p&gt;&lt;hr style=&quot;font-size: 11px&quot;&gt;&lt;p style=&quot;margin: 0px 0px 0px 4px ; font-size: 11px&quot;&gt;&lt;font style=&quot;font-size: 11px&quot;&gt;+&amp;nbsp;&lt;span lang=&quot;EN-US&quot;&gt;setId&lt;/span&gt;(int id): void&lt;/font&gt;&lt;/p&gt;&lt;p style=&quot;margin: 0px 0px 0px 4px ; font-size: 11px&quot;&gt;&lt;font style=&quot;font-size: 11px&quot;&gt;+&amp;nbsp;&lt;span lang=&quot;EN-US&quot;&gt;setName&lt;/span&gt;(String name): void&lt;/font&gt;&lt;/p&gt;&lt;br&gt;" style="verticalAlign=top;align=left;overflow=fill;fontSize=10.5;fontFamily=Times new Roman;html=1;strokeWidth=1;" parent="1" vertex="1">
          <mxGeometry x="-1023.5" y="978.5" width="205" height="113" as="geometry"/>
        </mxCell>
        <mxCell id="aWHWJIVktm57PcOYF1WG-12" value="&lt;p style=&quot;margin: 4px 0px 0px; text-align: center; font-size: 10.5px;&quot;&gt;&lt;span lang=&quot;EN-US&quot; style=&quot;font-size: 10.5px;&quot;&gt;WxUser&lt;/span&gt;&lt;br style=&quot;font-size: 10.5px;&quot;&gt;&lt;/p&gt;&lt;hr style=&quot;font-size: 10.5px;&quot;&gt;&lt;p style=&quot;margin: 0px 0px 0px 4px; font-size: 10.5px;&quot;&gt;&lt;font style=&quot;font-size: 10.5px;&quot;&gt;+ unionId : String&lt;/font&gt;&lt;/p&gt;&lt;p style=&quot;margin: 0px 0px 0px 4px; font-size: 10.5px;&quot;&gt;&lt;font style=&quot;font-size: 10.5px;&quot;&gt;+ openId : String&lt;/font&gt;&lt;/p&gt;&lt;hr style=&quot;font-size: 10.5px;&quot;&gt;&lt;p style=&quot;margin: 0px 0px 0px 4px; font-size: 10.5px;&quot;&gt;&lt;font style=&quot;font-size: 10.5px;&quot;&gt;+&amp;nbsp;&lt;span lang=&quot;EN-US&quot; style=&quot;font-size: 10.5px;&quot;&gt;setUnionId&lt;/span&gt;(String unioinId): void&lt;/font&gt;&lt;/p&gt;&lt;p style=&quot;margin: 0px 0px 0px 4px; font-size: 10.5px;&quot;&gt;&lt;font style=&quot;font-size: 10.5px;&quot;&gt;+&amp;nbsp;&lt;span lang=&quot;EN-US&quot; style=&quot;font-size: 10.5px;&quot;&gt;setOpenId&lt;/span&gt;(String openId): void&lt;/font&gt;&lt;/p&gt;&lt;br style=&quot;font-size: 10.5px;&quot;&gt;" style="verticalAlign=top;align=left;overflow=fill;fontSize=10.5;fontFamily=Times new Roman;html=1;strokeWidth=1;" parent="1" vertex="1">
          <mxGeometry x="-973" y="1183" width="205" height="115" as="geometry"/>
        </mxCell>
        <mxCell id="aWHWJIVktm57PcOYF1WG-13" value="&lt;p style=&quot;margin: 4px 0px 0px; text-align: center; font-size: 10.5px;&quot;&gt;&lt;span lang=&quot;EN-US&quot; style=&quot;font-size: 10.5px;&quot;&gt;Cart&lt;/span&gt;&lt;br style=&quot;font-size: 10.5px;&quot;&gt;&lt;/p&gt;&lt;hr style=&quot;font-size: 10.5px;&quot;&gt;&lt;p style=&quot;margin: 0px 0px 0px 4px; font-size: 10.5px;&quot;&gt;&lt;font style=&quot;font-size: 10.5px;&quot;&gt;+ unionId : String&lt;/font&gt;&lt;/p&gt;&lt;p style=&quot;margin: 0px 0px 0px 4px; font-size: 10.5px;&quot;&gt;&lt;font style=&quot;font-size: 10.5px;&quot;&gt;+ bookId : String&lt;/font&gt;&lt;/p&gt;&lt;p style=&quot;margin: 0px 0px 0px 4px; font-size: 10.5px;&quot;&gt;&lt;font style=&quot;font-size: 10.5px;&quot;&gt;+ count : String&lt;/font&gt;&lt;/p&gt;&lt;p style=&quot;margin: 0px 0px 0px 4px; font-size: 10.5px;&quot;&gt;&lt;font style=&quot;font-size: 10.5px;&quot;&gt;+ sum : Double&lt;/font&gt;&lt;/p&gt;&lt;hr style=&quot;font-size: 10.5px;&quot;&gt;&lt;p style=&quot;margin: 0px 0px 0px 4px; font-size: 10.5px;&quot;&gt;&lt;font style=&quot;font-size: 10.5px;&quot;&gt;+&amp;nbsp;&lt;span lang=&quot;EN-US&quot; style=&quot;font-size: 10.5px;&quot;&gt;setUnionId&lt;/span&gt;(String unioinId): void&lt;/font&gt;&lt;/p&gt;&lt;p style=&quot;margin: 0px 0px 0px 4px; font-size: 10.5px;&quot;&gt;&lt;font style=&quot;font-size: 10.5px;&quot;&gt;+&amp;nbsp;&lt;span lang=&quot;EN-US&quot; style=&quot;font-size: 10.5px;&quot;&gt;setBookId&lt;/span&gt;(String bId): void&lt;/font&gt;&lt;/p&gt;&amp;nbsp;+&amp;nbsp;&lt;span lang=&quot;EN-US&quot; style=&quot;font-size: 10.5px;&quot;&gt;setCartCount&lt;/span&gt;(int count): void&lt;br style=&quot;font-size: 10.5px;&quot;&gt;&amp;nbsp;+&amp;nbsp;&lt;span lang=&quot;EN-US&quot; style=&quot;font-size: 10.5px;&quot;&gt;setCartSum&lt;/span&gt;(Double sum): void&lt;br style=&quot;font-size: 10.5px;&quot;&gt;" style="verticalAlign=top;align=left;overflow=fill;fontSize=10.5;fontFamily=Times new Roman;html=1;strokeWidth=1;" parent="1" vertex="1">
          <mxGeometry x="-1173.5" y="1385.5" width="205" height="166" as="geometry"/>
        </mxCell>
        <mxCell id="aWHWJIVktm57PcOYF1WG-14" value="&lt;p style=&quot;margin: 4px 0px 0px; text-align: center; font-size: 10.5px;&quot;&gt;&lt;span lang=&quot;EN-US&quot; style=&quot;font-size: 10.5px;&quot;&gt;Address&lt;/span&gt;&lt;br style=&quot;font-size: 10.5px;&quot;&gt;&lt;/p&gt;&lt;hr style=&quot;font-size: 10.5px;&quot;&gt;&lt;p style=&quot;margin: 0px 0px 0px 4px; font-size: 10.5px;&quot;&gt;&lt;font style=&quot;font-size: 10.5px;&quot;&gt;+ addId : int&lt;/font&gt;&lt;/p&gt;&lt;p style=&quot;margin: 0px 0px 0px 4px; font-size: 10.5px;&quot;&gt;&lt;font style=&quot;font-size: 10.5px;&quot;&gt;+ addDefault : Boolean&lt;/font&gt;&lt;/p&gt;&lt;p style=&quot;margin: 0px 0px 0px 4px; font-size: 10.5px;&quot;&gt;&lt;font style=&quot;font-size: 10.5px;&quot;&gt;+ addProvince : String&lt;/font&gt;&lt;/p&gt;&lt;p style=&quot;margin: 0px 0px 0px 4px; font-size: 10.5px;&quot;&gt;&lt;font style=&quot;font-size: 10.5px;&quot;&gt;+ addCity : String&lt;/font&gt;&lt;/p&gt;&lt;p style=&quot;margin: 0px 0px 0px 4px; font-size: 10.5px;&quot;&gt;&lt;font style=&quot;font-size: 10.5px;&quot;&gt;+ addCounty : String&lt;/font&gt;&lt;/p&gt;&lt;p style=&quot;margin: 0px 0px 0px 4px; font-size: 10.5px;&quot;&gt;&lt;font style=&quot;font-size: 10.5px;&quot;&gt;+ addTele : String&lt;/font&gt;&lt;/p&gt;&lt;hr style=&quot;font-size: 10.5px;&quot;&gt;&lt;p style=&quot;margin: 0px 0px 0px 4px; font-size: 10.5px;&quot;&gt;&lt;font style=&quot;font-size: 10.5px;&quot;&gt;+&amp;nbsp;&lt;span lang=&quot;EN-US&quot; style=&quot;font-size: 10.5px;&quot;&gt;setAddId&lt;/span&gt;(int id): void&lt;/font&gt;&lt;/p&gt;&lt;p style=&quot;margin: 0px 0px 0px 4px; font-size: 10.5px;&quot;&gt;&lt;font style=&quot;font-size: 10.5px;&quot;&gt;+&amp;nbsp;&lt;span lang=&quot;EN-US&quot; style=&quot;font-size: 10.5px;&quot;&gt;setAddDefault&lt;/span&gt;(boolean default): void&lt;/font&gt;&lt;/p&gt;&amp;nbsp;+&amp;nbsp;&lt;span lang=&quot;EN-US&quot; style=&quot;font-size: 10.5px;&quot;&gt;setAddProvince&lt;/span&gt;(String prv): void&lt;br style=&quot;font-size: 10.5px;&quot;&gt;&amp;nbsp;+&amp;nbsp;&lt;span lang=&quot;EN-US&quot; style=&quot;font-size: 10.5px;&quot;&gt;setAddCity&lt;/span&gt;(String city): void&lt;br style=&quot;font-size: 10.5px;&quot;&gt;&amp;nbsp;+&amp;nbsp;&lt;span lang=&quot;EN-US&quot; style=&quot;font-size: 10.5px;&quot;&gt;setAddCounty&lt;/span&gt;(String county): void&lt;br style=&quot;font-size: 10.5px;&quot;&gt;&amp;nbsp;+&amp;nbsp;&lt;span lang=&quot;EN-US&quot; style=&quot;font-size: 10.5px;&quot;&gt;setAddTele&lt;/span&gt;(String tele): void&lt;br style=&quot;font-size: 10.5px;&quot;&gt;" style="verticalAlign=top;align=left;overflow=fill;fontSize=10.5;fontFamily=Times new Roman;html=1;strokeWidth=1;" parent="1" vertex="1">
          <mxGeometry x="-950.5" y="1466" width="205" height="222" as="geometry"/>
        </mxCell>
        <mxCell id="aWHWJIVktm57PcOYF1WG-15" value="&lt;p style=&quot;margin: 4px 0px 0px; text-align: center; font-size: 10.5px;&quot;&gt;&lt;span lang=&quot;EN-US&quot; style=&quot;font-size: 10.5px;&quot;&gt;Book&lt;/span&gt;&lt;br style=&quot;font-size: 10.5px;&quot;&gt;&lt;/p&gt;&lt;hr style=&quot;font-size: 10.5px;&quot;&gt;&lt;p style=&quot;margin: 0px 0px 0px 4px; font-size: 10.5px;&quot;&gt;&lt;font style=&quot;font-size: 10.5px;&quot;&gt;+ bookId : int&lt;/font&gt;&lt;/p&gt;&lt;p style=&quot;margin: 0px 0px 0px 4px; font-size: 10.5px;&quot;&gt;&lt;font style=&quot;font-size: 10.5px;&quot;&gt;+ bookISBN : Boolean&lt;/font&gt;&lt;/p&gt;&lt;p style=&quot;margin: 0px 0px 0px 4px; font-size: 10.5px;&quot;&gt;&lt;font style=&quot;font-size: 10.5px;&quot;&gt;+ storeId : String&lt;/font&gt;&lt;/p&gt;&lt;p style=&quot;margin: 0px 0px 0px 4px; font-size: 10.5px;&quot;&gt;&lt;font style=&quot;font-size: 10.5px;&quot;&gt;+ cateId : String&lt;/font&gt;&lt;/p&gt;&lt;p style=&quot;margin: 0px 0px 0px 4px; font-size: 10.5px;&quot;&gt;&lt;font style=&quot;font-size: 10.5px;&quot;&gt;+ detail : String&lt;/font&gt;&lt;/p&gt;&lt;hr style=&quot;font-size: 10.5px;&quot;&gt;&lt;p style=&quot;margin: 0px 0px 0px 4px; font-size: 10.5px;&quot;&gt;&lt;font style=&quot;font-size: 10.5px;&quot;&gt;+&amp;nbsp;&lt;span lang=&quot;EN-US&quot; style=&quot;font-size: 10.5px;&quot;&gt;setBookId&lt;/span&gt;(int id): void&lt;/font&gt;&lt;/p&gt;&lt;p style=&quot;margin: 0px 0px 0px 4px; font-size: 10.5px;&quot;&gt;&lt;font style=&quot;font-size: 10.5px;&quot;&gt;+&amp;nbsp;&lt;span lang=&quot;EN-US&quot; style=&quot;font-size: 10.5px;&quot;&gt;setBookISBN&lt;/span&gt;(boolean default): void&lt;/font&gt;&lt;/p&gt;&amp;nbsp;+&amp;nbsp;&lt;span lang=&quot;EN-US&quot; style=&quot;font-size: 10.5px;&quot;&gt;setStoreId&lt;/span&gt;(String prv): void&lt;br style=&quot;font-size: 10.5px;&quot;&gt;&amp;nbsp;+&amp;nbsp;&lt;span lang=&quot;EN-US&quot; style=&quot;font-size: 10.5px;&quot;&gt;setCateId&lt;/span&gt;(String city): void&lt;br style=&quot;font-size: 10.5px;&quot;&gt;&amp;nbsp;+&amp;nbsp;&lt;span lang=&quot;EN-US&quot; style=&quot;font-size: 10.5px;&quot;&gt;setDetail&lt;/span&gt;(String county): void&lt;br style=&quot;font-size: 10.5px;&quot;&gt;" style="verticalAlign=top;align=left;overflow=fill;fontSize=10.5;fontFamily=Times new Roman;html=1;strokeWidth=1;" parent="1" vertex="1">
          <mxGeometry x="-1174" y="1641" width="205" height="197" as="geometry"/>
        </mxCell>
        <mxCell id="aWHWJIVktm57PcOYF1WG-16" value="&lt;p style=&quot;margin: 4px 0px 0px; text-align: center; font-size: 10.5px;&quot;&gt;&lt;span lang=&quot;EN-US&quot; style=&quot;font-size: 10.5px;&quot;&gt;Order&lt;/span&gt;&lt;br style=&quot;font-size: 10.5px;&quot;&gt;&lt;/p&gt;&lt;hr style=&quot;font-size: 10.5px;&quot;&gt;&lt;p style=&quot;margin: 0px 0px 0px 4px; font-size: 10.5px;&quot;&gt;&lt;font style=&quot;font-size: 10.5px;&quot;&gt;+ orderId : int&lt;/font&gt;&lt;/p&gt;&lt;p style=&quot;margin: 0px 0px 0px 4px; font-size: 10.5px;&quot;&gt;&lt;font style=&quot;font-size: 10.5px;&quot;&gt;+ number : String&lt;/font&gt;&lt;/p&gt;&lt;p style=&quot;margin: 0px 0px 0px 4px; font-size: 10.5px;&quot;&gt;&lt;font style=&quot;font-size: 10.5px;&quot;&gt;+ createTime : Date&lt;br style=&quot;font-size: 10.5px;&quot;&gt;&lt;/font&gt;&lt;/p&gt;&lt;p style=&quot;margin: 0px 0px 0px 4px; font-size: 10.5px;&quot;&gt;&lt;font style=&quot;font-size: 10.5px;&quot;&gt;+ payTime : Date&lt;/font&gt;&lt;/p&gt;&lt;p style=&quot;margin: 0px 0px 0px 4px; font-size: 10.5px;&quot;&gt;&lt;font style=&quot;font-size: 10.5px;&quot;&gt;+ EndTime : Date&lt;/font&gt;&lt;/p&gt;&lt;p style=&quot;margin: 0px 0px 0px 4px; font-size: 10.5px;&quot;&gt;&lt;font style=&quot;font-size: 10.5px;&quot;&gt;+ totalAccount : Decimal&lt;/font&gt;&lt;/p&gt;&lt;p style=&quot;margin: 0px 0px 0px 4px; font-size: 10.5px;&quot;&gt;&lt;font style=&quot;font-size: 10.5px;&quot;&gt;+ promotion : Decimal&lt;br style=&quot;font-size: 10.5px;&quot;&gt;&lt;/font&gt;&lt;/p&gt;&lt;p style=&quot;margin: 0px 0px 0px 4px; font-size: 10.5px;&quot;&gt;&lt;font style=&quot;font-size: 10.5px;&quot;&gt;+ coupon : Decimal&lt;/font&gt;&lt;/p&gt;&lt;p style=&quot;margin: 0px 0px 0px 4px; font-size: 10.5px;&quot;&gt;+ discount : Decimal&lt;br style=&quot;font-size: 10.5px;&quot;&gt;&lt;/p&gt;&lt;p style=&quot;margin: 0px 0px 0px 4px; font-size: 10.5px;&quot;&gt;&lt;font style=&quot;font-size: 10.5px;&quot;&gt;+ goodsCount : int&lt;/font&gt;&lt;/p&gt;&lt;p style=&quot;margin: 0px 0px 0px 4px; font-size: 10.5px;&quot;&gt;&lt;font style=&quot;font-size: 10.5px;&quot;&gt;+ storeId : int&lt;/font&gt;&lt;/p&gt;&lt;p style=&quot;margin: 0px 0px 0px 4px; font-size: 10.5px;&quot;&gt;&lt;font style=&quot;font-size: 10.5px;&quot;&gt;+ userId : int&lt;/font&gt;&lt;/p&gt;&lt;p style=&quot;margin: 0px 0px 0px 4px; font-size: 10.5px;&quot;&gt;&lt;font style=&quot;font-size: 10.5px;&quot;&gt;+ tradeNumber : String&lt;/font&gt;&lt;/p&gt;&lt;p style=&quot;margin: 0px 0px 0px 4px; font-size: 10.5px;&quot;&gt;&lt;font style=&quot;font-size: 10.5px;&quot;&gt;+ addId : int&lt;/font&gt;&lt;/p&gt;&lt;p style=&quot;margin: 0px 0px 0px 4px; font-size: 10.5px;&quot;&gt;&lt;font style=&quot;font-size: 10.5px;&quot;&gt;+ detail : String&lt;/font&gt;&lt;/p&gt;&lt;hr style=&quot;font-size: 10.5px;&quot;&gt;&lt;p style=&quot;margin: 0px 0px 0px 4px; font-size: 10.5px;&quot;&gt;&lt;font style=&quot;font-size: 10.5px;&quot;&gt;+&amp;nbsp;&lt;span lang=&quot;EN-US&quot; style=&quot;font-size: 10.5px;&quot;&gt;setOrderId&lt;/span&gt;(int id): void&lt;/font&gt;&lt;/p&gt;&lt;p style=&quot;margin: 0px 0px 0px 4px; font-size: 10.5px;&quot;&gt;&lt;font style=&quot;font-size: 10.5px;&quot;&gt;+&amp;nbsp;&lt;span lang=&quot;EN-US&quot; style=&quot;font-size: 10.5px;&quot;&gt;setNumber&lt;/span&gt;(String num): void&lt;/font&gt;&lt;/p&gt;&amp;nbsp;+&amp;nbsp;&lt;span lang=&quot;EN-US&quot; style=&quot;font-size: 10.5px;&quot;&gt;setCreateTime&lt;/span&gt;(Date time): void&lt;br style=&quot;font-size: 10.5px;&quot;&gt;&amp;nbsp;+&amp;nbsp;&lt;span lang=&quot;EN-US&quot; style=&quot;font-size: 10.5px;&quot;&gt;setPayTime&lt;/span&gt;(Date time): void&lt;br style=&quot;font-size: 10.5px;&quot;&gt;&amp;nbsp;+&amp;nbsp;&lt;span lang=&quot;EN-US&quot; style=&quot;font-size: 10.5px;&quot;&gt;setEndTime&lt;/span&gt;(Date time): void&lt;br style=&quot;font-size: 10.5px;&quot;&gt;&amp;nbsp;+&amp;nbsp;&lt;span lang=&quot;EN-US&quot; style=&quot;font-size: 10.5px;&quot;&gt;setTotalAccount&lt;/span&gt;(Decimal account): void&lt;br style=&quot;font-size: 10.5px;&quot;&gt;&amp;nbsp;+ setPromotion(Decimal account): void&lt;br style=&quot;font-size: 10.5px;&quot;&gt;&amp;nbsp;+ setCoupon(Decimal account): void&lt;br style=&quot;font-size: 10.5px;&quot;&gt;&amp;nbsp;+ setGoodsCount(int count): void&lt;br style=&quot;font-size: 10.5px;&quot;&gt;&amp;nbsp;+ setStoreId(int storeId): void&lt;br style=&quot;font-size: 10.5px;&quot;&gt;&amp;nbsp;+ setUserId(int userId): void&lt;br style=&quot;font-size: 10.5px;&quot;&gt;&amp;nbsp;+ setTradeNumber(String num): void&lt;br style=&quot;font-size: 10.5px;&quot;&gt;&amp;nbsp;+ setAddId(int addId): void&lt;br style=&quot;font-size: 10.5px;&quot;&gt;&amp;nbsp;+ setDetail(String det): void&lt;br style=&quot;font-size: 10.5px;&quot;&gt;" style="verticalAlign=top;align=left;overflow=fill;fontSize=10.5;fontFamily=Times new Roman;html=1;strokeWidth=1;" parent="1" vertex="1">
          <mxGeometry x="-723" y="1383" width="222" height="461" as="geometry"/>
        </mxCell>
        <mxCell id="aWHWJIVktm57PcOYF1WG-17" value="Relation" style="endArrow=open;html=1;endSize=12;startArrow=diamondThin;startSize=14;startFill=0;edgeStyle=orthogonalEdgeStyle;strokeWidth=1;fontFamily=Times new Roman;fontSize=10.5;entryX=0;entryY=0.5;entryDx=0;entryDy=0;exitX=0.5;exitY=0;exitDx=0;exitDy=0;" parent="1" source="aWHWJIVktm57PcOYF1WG-13" target="aWHWJIVktm57PcOYF1WG-12" edge="1">
          <mxGeometry relative="1" as="geometry">
            <mxPoint x="-1376" y="1236.5" as="sourcePoint"/>
            <mxPoint x="-1216" y="1236.5" as="targetPoint"/>
          </mxGeometry>
        </mxCell>
        <mxCell id="aWHWJIVktm57PcOYF1WG-18" value="0..n" style="resizable=0;html=1;align=left;verticalAlign=top;labelBackgroundColor=#ffffff;fontSize=10.5;fontFamily=Times new Roman;" parent="aWHWJIVktm57PcOYF1WG-17" connectable="0" vertex="1">
          <mxGeometry x="-1" relative="1" as="geometry">
            <mxPoint y="-48" as="offset"/>
          </mxGeometry>
        </mxCell>
        <mxCell id="aWHWJIVktm57PcOYF1WG-19" value="1" style="resizable=0;html=1;align=right;verticalAlign=top;labelBackgroundColor=#ffffff;fontSize=10.5;fontFamily=Times new Roman;" parent="aWHWJIVktm57PcOYF1WG-17" connectable="0" vertex="1">
          <mxGeometry x="1" relative="1" as="geometry">
            <mxPoint x="-25" y="-7" as="offset"/>
          </mxGeometry>
        </mxCell>
        <mxCell id="aWHWJIVktm57PcOYF1WG-20" value="Relation" style="endArrow=open;html=1;endSize=12;startArrow=diamondThin;startSize=14;startFill=0;edgeStyle=orthogonalEdgeStyle;strokeWidth=1;fontFamily=Times new Roman;fontSize=10.5;exitX=0.568;exitY=0.005;exitDx=0;exitDy=0;exitPerimeter=0;" parent="1" source="aWHWJIVktm57PcOYF1WG-14" target="aWHWJIVktm57PcOYF1WG-12" edge="1">
          <mxGeometry relative="1" as="geometry">
            <mxPoint x="-637" y="1177.5" as="sourcePoint"/>
            <mxPoint x="-477" y="1177.5" as="targetPoint"/>
          </mxGeometry>
        </mxCell>
        <mxCell id="aWHWJIVktm57PcOYF1WG-21" value="0..n" style="resizable=0;html=1;align=left;verticalAlign=top;labelBackgroundColor=#ffffff;fontSize=10.5;fontFamily=Times new Roman;" parent="aWHWJIVktm57PcOYF1WG-20" connectable="0" vertex="1">
          <mxGeometry x="-1" relative="1" as="geometry">
            <mxPoint x="-1" y="-51" as="offset"/>
          </mxGeometry>
        </mxCell>
        <mxCell id="aWHWJIVktm57PcOYF1WG-22" value="1" style="resizable=0;html=1;align=right;verticalAlign=top;labelBackgroundColor=#ffffff;fontSize=10.5;fontFamily=Times new Roman;" parent="aWHWJIVktm57PcOYF1WG-20" connectable="0" vertex="1">
          <mxGeometry x="1" relative="1" as="geometry">
            <mxPoint x="-5" y="19" as="offset"/>
          </mxGeometry>
        </mxCell>
        <mxCell id="aWHWJIVktm57PcOYF1WG-23" value="Relation" style="endArrow=open;html=1;endSize=12;startArrow=diamondThin;startSize=14;startFill=0;edgeStyle=orthogonalEdgeStyle;strokeWidth=1;fontFamily=Times new Roman;fontSize=10.5;exitX=0.545;exitY=-0.002;exitDx=0;exitDy=0;exitPerimeter=0;entryX=1;entryY=0.5;entryDx=0;entryDy=0;" parent="1" source="aWHWJIVktm57PcOYF1WG-16" target="aWHWJIVktm57PcOYF1WG-12" edge="1">
          <mxGeometry relative="1" as="geometry">
            <mxPoint x="-587" y="1307" as="sourcePoint"/>
            <mxPoint x="-623" y="1138" as="targetPoint"/>
          </mxGeometry>
        </mxCell>
        <mxCell id="aWHWJIVktm57PcOYF1WG-24" value="0..n" style="resizable=0;html=1;align=left;verticalAlign=top;labelBackgroundColor=#ffffff;fontSize=10.5;fontFamily=Times new Roman;" parent="aWHWJIVktm57PcOYF1WG-23" connectable="0" vertex="1">
          <mxGeometry x="-1" relative="1" as="geometry">
            <mxPoint x="-2" y="-58" as="offset"/>
          </mxGeometry>
        </mxCell>
        <mxCell id="aWHWJIVktm57PcOYF1WG-25" value="1" style="resizable=0;html=1;align=right;verticalAlign=top;labelBackgroundColor=#ffffff;fontSize=10.5;fontFamily=Times new Roman;" parent="aWHWJIVktm57PcOYF1WG-23" connectable="0" vertex="1">
          <mxGeometry x="1" relative="1" as="geometry">
            <mxPoint x="39" y="-0.5" as="offset"/>
          </mxGeometry>
        </mxCell>
        <mxCell id="aWHWJIVktm57PcOYF1WG-26" value="Relation" style="endArrow=open;html=1;endSize=12;startArrow=diamondThin;startSize=14;startFill=0;edgeStyle=orthogonalEdgeStyle;strokeWidth=1;fontFamily=Times new Roman;fontSize=10.5;entryX=0.171;entryY=-0.023;entryDx=0;entryDy=0;exitX=0.539;exitY=1.009;exitDx=0;exitDy=0;exitPerimeter=0;entryPerimeter=0;" parent="1" source="aWHWJIVktm57PcOYF1WG-13" target="aWHWJIVktm57PcOYF1WG-15" edge="1">
          <mxGeometry relative="1" as="geometry">
            <mxPoint x="-1468" y="1653" as="sourcePoint"/>
            <mxPoint x="-1358" y="1507" as="targetPoint"/>
          </mxGeometry>
        </mxCell>
        <mxCell id="aWHWJIVktm57PcOYF1WG-27" value="0..n" style="resizable=0;html=1;align=left;verticalAlign=top;labelBackgroundColor=#ffffff;fontSize=10.5;fontFamily=Times new Roman;" parent="aWHWJIVktm57PcOYF1WG-26" connectable="0" vertex="1">
          <mxGeometry x="-1" relative="1" as="geometry">
            <mxPoint y="20" as="offset"/>
          </mxGeometry>
        </mxCell>
        <mxCell id="aWHWJIVktm57PcOYF1WG-28" value="1" style="resizable=0;html=1;align=right;verticalAlign=top;labelBackgroundColor=#ffffff;fontSize=10.5;fontFamily=Times new Roman;" parent="aWHWJIVktm57PcOYF1WG-26" connectable="0" vertex="1">
          <mxGeometry x="1" relative="1" as="geometry">
            <mxPoint x="-4" y="-36" as="offset"/>
          </mxGeometry>
        </mxCell>
        <mxCell id="aWHWJIVktm57PcOYF1WG-29" value="Relation" style="endArrow=open;html=1;endSize=12;startArrow=diamondThin;startSize=14;startFill=0;edgeStyle=orthogonalEdgeStyle;strokeWidth=1;fontFamily=Times new Roman;fontSize=10.5;entryX=0.995;entryY=0.549;entryDx=0;entryDy=0;exitX=0.009;exitY=0.937;exitDx=0;exitDy=0;entryPerimeter=0;exitPerimeter=0;" parent="1" source="aWHWJIVktm57PcOYF1WG-16" target="aWHWJIVktm57PcOYF1WG-15" edge="1">
          <mxGeometry relative="1" as="geometry">
            <mxPoint x="-806.5" y="1834" as="sourcePoint"/>
            <mxPoint x="-870.5" y="1917" as="targetPoint"/>
            <Array as="points">
              <mxPoint x="-894" y="1815"/>
              <mxPoint x="-894" y="1749"/>
            </Array>
          </mxGeometry>
        </mxCell>
        <mxCell id="aWHWJIVktm57PcOYF1WG-30" value="0..n" style="resizable=0;html=1;align=left;verticalAlign=top;labelBackgroundColor=#ffffff;fontSize=10.5;fontFamily=Times new Roman;" parent="aWHWJIVktm57PcOYF1WG-29" connectable="0" vertex="1">
          <mxGeometry x="-1" relative="1" as="geometry">
            <mxPoint x="-51" y="-6" as="offset"/>
          </mxGeometry>
        </mxCell>
        <mxCell id="aWHWJIVktm57PcOYF1WG-31" value="1" style="resizable=0;html=1;align=right;verticalAlign=top;labelBackgroundColor=#ffffff;fontSize=10.5;fontFamily=Times new Roman;" parent="aWHWJIVktm57PcOYF1WG-29" connectable="0" vertex="1">
          <mxGeometry x="1" relative="1" as="geometry">
            <mxPoint x="42" y="-23" as="offset"/>
          </mxGeometry>
        </mxCell>
        <mxCell id="aWHWJIVktm57PcOYF1WG-32" value="Relation" style="endArrow=open;html=1;endSize=12;startArrow=diamondThin;startSize=14;startFill=0;edgeStyle=orthogonalEdgeStyle;strokeWidth=1;fontFamily=Times new Roman;fontSize=10.5;exitX=0.005;exitY=0.803;exitDx=0;exitDy=0;exitPerimeter=0;entryX=0.5;entryY=1;entryDx=0;entryDy=0;" parent="1" source="aWHWJIVktm57PcOYF1WG-16" target="aWHWJIVktm57PcOYF1WG-14" edge="1">
          <mxGeometry relative="1" as="geometry">
            <mxPoint x="-689" y="1889" as="sourcePoint"/>
            <mxPoint x="-883" y="1924" as="targetPoint"/>
            <Array as="points">
              <mxPoint x="-817" y="1753"/>
              <mxPoint x="-817" y="1750"/>
              <mxPoint x="-848" y="1750"/>
            </Array>
          </mxGeometry>
        </mxCell>
        <mxCell id="aWHWJIVktm57PcOYF1WG-33" value="0..n" style="resizable=0;html=1;align=left;verticalAlign=top;labelBackgroundColor=#ffffff;fontSize=10.5;fontFamily=Times new Roman;" parent="aWHWJIVktm57PcOYF1WG-32" connectable="0" vertex="1">
          <mxGeometry x="-1" relative="1" as="geometry">
            <mxPoint x="-42.5" y="-23" as="offset"/>
          </mxGeometry>
        </mxCell>
        <mxCell id="aWHWJIVktm57PcOYF1WG-34" value="1" style="resizable=0;html=1;align=right;verticalAlign=top;labelBackgroundColor=#ffffff;fontSize=10.5;fontFamily=Times new Roman;" parent="aWHWJIVktm57PcOYF1WG-32" connectable="0" vertex="1">
          <mxGeometry x="1" relative="1" as="geometry">
            <mxPoint x="-8" y="9" as="offset"/>
          </mxGeometry>
        </mxCell>
        <mxCell id="2NftIS-O6DTb0jr66qTK-1" value="Relation" style="endArrow=open;html=1;endSize=12;startArrow=diamondThin;startSize=14;startFill=0;edgeStyle=orthogonalEdgeStyle;strokeWidth=1;fontFamily=Times new Roman;fontSize=10.5;entryX=0.01;entryY=0.445;entryDx=0;entryDy=0;entryPerimeter=0;exitX=0.488;exitY=0.006;exitDx=0;exitDy=0;exitPerimeter=0;" parent="1" source="aWHWJIVktm57PcOYF1WG-8" target="aWHWJIVktm57PcOYF1WG-3" edge="1">
          <mxGeometry relative="1" as="geometry">
            <mxPoint x="-998" y="964" as="sourcePoint"/>
            <mxPoint x="-1017" y="785.5" as="targetPoint"/>
            <Array as="points">
              <mxPoint x="-924" y="923"/>
              <mxPoint x="-924" y="859"/>
            </Array>
          </mxGeometry>
        </mxCell>
        <mxCell id="2NftIS-O6DTb0jr66qTK-2" value="0..n" style="resizable=0;html=1;align=left;verticalAlign=top;labelBackgroundColor=#ffffff;fontSize=10.5;fontFamily=Times new Roman;" parent="2NftIS-O6DTb0jr66qTK-1" connectable="0" vertex="1">
          <mxGeometry x="-1" relative="1" as="geometry">
            <mxPoint y="-48" as="offset"/>
          </mxGeometry>
        </mxCell>
        <mxCell id="2NftIS-O6DTb0jr66qTK-3" value="1" style="resizable=0;html=1;align=right;verticalAlign=top;labelBackgroundColor=#ffffff;fontSize=10.5;fontFamily=Times new Roman;" parent="2NftIS-O6DTb0jr66qTK-1" connectable="0" vertex="1">
          <mxGeometry x="1" relative="1" as="geometry">
            <mxPoint x="-25" y="-7" as="offset"/>
          </mxGeometry>
        </mxCell>
        <mxCell id="2NftIS-O6DTb0jr66qTK-6" value="&lt;p style=&quot;margin: 4px 0px 0px ; text-align: center ; font-size: 11px&quot;&gt;&lt;span lang=&quot;EN-US&quot;&gt;AmsPerMissioin&lt;/span&gt;&lt;br&gt;&lt;/p&gt;&lt;hr style=&quot;font-size: 11px&quot;&gt;&lt;p style=&quot;margin: 0px 0px 0px 4px ; font-size: 11px&quot;&gt;&lt;font style=&quot;font-size: 11px&quot;&gt;+ id : int&lt;/font&gt;&lt;/p&gt;&lt;p style=&quot;margin: 0px 0px 0px 4px ; font-size: 11px&quot;&gt;&lt;font style=&quot;font-size: 11px&quot;&gt;+ name : String&lt;/font&gt;&lt;/p&gt;&lt;p style=&quot;margin: 0px 0px 0px 4px ; font-size: 11px&quot;&gt;&lt;font style=&quot;font-size: 11px&quot;&gt;+ uri : String&lt;br&gt;&lt;/font&gt;&lt;/p&gt;&lt;hr style=&quot;font-size: 11px&quot;&gt;&lt;p style=&quot;margin: 0px 0px 0px 4px ; font-size: 11px&quot;&gt;&lt;font style=&quot;font-size: 11px&quot;&gt;+&amp;nbsp;&lt;span lang=&quot;EN-US&quot;&gt;setId&lt;/span&gt;(int id): void&lt;/font&gt;&lt;/p&gt;&lt;p style=&quot;margin: 0px 0px 0px 4px ; font-size: 11px&quot;&gt;&lt;font style=&quot;font-size: 11px&quot;&gt;+&amp;nbsp;&lt;span lang=&quot;EN-US&quot;&gt;setName&lt;/span&gt;(String name): void&lt;/font&gt;&lt;/p&gt;&lt;p style=&quot;margin: 0px 0px 0px 4px ; font-size: 11px&quot;&gt;&lt;font style=&quot;font-size: 11px&quot;&gt;+ setUrl(String uri): void&lt;/font&gt;&lt;/p&gt;&lt;br&gt;" style="verticalAlign=top;align=left;overflow=fill;fontSize=10.5;fontFamily=Times new Roman;html=1;strokeWidth=1;" parent="1" vertex="1">
          <mxGeometry x="-700.5" y="960" width="205" height="143" as="geometry"/>
        </mxCell>
        <mxCell id="2NftIS-O6DTb0jr66qTK-10" value="Relation" style="endArrow=open;html=1;endSize=12;startArrow=diamondThin;startSize=14;startFill=0;edgeStyle=orthogonalEdgeStyle;strokeWidth=1;fontFamily=Times new Roman;fontSize=10.5;entryX=0.999;entryY=0.602;entryDx=0;entryDy=0;entryPerimeter=0;" parent="1" source="2NftIS-O6DTb0jr66qTK-6" target="aWHWJIVktm57PcOYF1WG-8" edge="1">
          <mxGeometry relative="1" as="geometry">
            <mxPoint x="-763.0238095238095" y="1124.8333333333333" as="sourcePoint"/>
            <mxPoint x="-703.9761904761905" y="1004.8333333333333" as="targetPoint"/>
            <Array as="points">
              <mxPoint x="-763" y="1068"/>
              <mxPoint x="-763" y="1046"/>
            </Array>
          </mxGeometry>
        </mxCell>
        <mxCell id="2NftIS-O6DTb0jr66qTK-11" value="0..n" style="resizable=0;html=1;align=left;verticalAlign=top;labelBackgroundColor=#ffffff;fontSize=10.5;fontFamily=Times new Roman;" parent="2NftIS-O6DTb0jr66qTK-10" connectable="0" vertex="1">
          <mxGeometry x="-1" relative="1" as="geometry">
            <mxPoint x="-53" y="-24" as="offset"/>
          </mxGeometry>
        </mxCell>
        <mxCell id="2NftIS-O6DTb0jr66qTK-12" value="1" style="resizable=0;html=1;align=right;verticalAlign=top;labelBackgroundColor=#ffffff;fontSize=10.5;fontFamily=Times new Roman;" parent="2NftIS-O6DTb0jr66qTK-10" connectable="0" vertex="1">
          <mxGeometry x="1" relative="1" as="geometry">
            <mxPoint x="27.5" y="-4" as="offset"/>
          </mxGeometry>
        </mxCell>
        <mxCell id="mZSFQpzuG-lNQ4ftAwoU-1" value="微信用户" style="shape=umlActor;verticalLabelPosition=bottom;labelBackgroundColor=#ffffff;verticalAlign=top;html=1;fontSize=10.5;fontFamily=宋体;fontStyle=0" parent="1" vertex="1">
          <mxGeometry x="-762.5" y="90.5" width="30" height="59" as="geometry"/>
        </mxCell>
        <mxCell id="mZSFQpzuG-lNQ4ftAwoU-2" value="图书查询" style="ellipse;whiteSpace=wrap;html=1;fontSize=10.5;fontFamily=宋体;fontStyle=0" parent="1" vertex="1">
          <mxGeometry x="-662.5" y="45" width="101" height="37" as="geometry"/>
        </mxCell>
        <mxCell id="mZSFQpzuG-lNQ4ftAwoU-3" value="购物车管理" style="ellipse;whiteSpace=wrap;html=1;fontSize=10.5;fontFamily=宋体;fontStyle=0" parent="1" vertex="1">
          <mxGeometry x="-663.5" y="104.5" width="102" height="35" as="geometry"/>
        </mxCell>
        <mxCell id="mZSFQpzuG-lNQ4ftAwoU-4" value="在线购买" style="ellipse;whiteSpace=wrap;html=1;fontSize=10.5;fontFamily=宋体;fontStyle=0" parent="1" vertex="1">
          <mxGeometry x="-651.5" y="150" width="100" height="34" as="geometry"/>
        </mxCell>
        <mxCell id="mZSFQpzuG-lNQ4ftAwoU-6" value="订单查询" style="ellipse;whiteSpace=wrap;html=1;fontSize=10.5;fontFamily=宋体;fontStyle=0" parent="1" vertex="1">
          <mxGeometry x="-457.5" y="106.5" width="100" height="34" as="geometry"/>
        </mxCell>
        <mxCell id="mZSFQpzuG-lNQ4ftAwoU-7" value="订单生成" style="ellipse;whiteSpace=wrap;html=1;fontSize=10.5;fontFamily=宋体;fontStyle=0" parent="1" vertex="1">
          <mxGeometry x="-471" y="154" width="100" height="34" as="geometry"/>
        </mxCell>
        <mxCell id="mZSFQpzuG-lNQ4ftAwoU-8" value="" style="endArrow=open;endFill=1;endSize=12;html=1;fontSize=10.5;entryX=0;entryY=0.5;entryDx=0;entryDy=0;fontFamily=宋体;fontStyle=0;exitX=1;exitY=0.3333333333333333;exitDx=0;exitDy=0;exitPerimeter=0;" parent="1" source="fg0MS4Svys2DaTFpCuoC-1" target="mZSFQpzuG-lNQ4ftAwoU-2" edge="1">
          <mxGeometry width="160" relative="1" as="geometry">
            <mxPoint x="-726.5" y="168" as="sourcePoint"/>
            <mxPoint x="-608.5" y="253" as="targetPoint"/>
          </mxGeometry>
        </mxCell>
        <mxCell id="mZSFQpzuG-lNQ4ftAwoU-12" value="Use" style="endArrow=open;endSize=12;dashed=1;html=1;fontSize=10.5;exitX=1;exitY=0.5;exitDx=0;exitDy=0;entryX=0.02;entryY=0.779;entryDx=0;entryDy=0;entryPerimeter=0;fontFamily=Times new Roman;fontStyle=0" parent="1" source="mZSFQpzuG-lNQ4ftAwoU-4" target="mZSFQpzuG-lNQ4ftAwoU-6" edge="1">
          <mxGeometry width="160" relative="1" as="geometry">
            <mxPoint x="-768.5" y="226" as="sourcePoint"/>
            <mxPoint x="-608.5" y="226" as="targetPoint"/>
          </mxGeometry>
        </mxCell>
        <mxCell id="mZSFQpzuG-lNQ4ftAwoU-13" value="Use" style="endArrow=open;endSize=12;dashed=1;html=1;fontSize=10.5;entryX=0;entryY=0.5;entryDx=0;entryDy=0;fontFamily=Times new Roman;fontStyle=0" parent="1" source="mZSFQpzuG-lNQ4ftAwoU-4" target="mZSFQpzuG-lNQ4ftAwoU-7" edge="1">
          <mxGeometry width="160" relative="1" as="geometry">
            <mxPoint x="-559.5" y="153" as="sourcePoint"/>
            <mxPoint x="-608.5" y="226" as="targetPoint"/>
          </mxGeometry>
        </mxCell>
        <mxCell id="mZSFQpzuG-lNQ4ftAwoU-14" value="添加图书到购物车" style="ellipse;whiteSpace=wrap;html=1;fontSize=10.5;fontFamily=宋体;fontStyle=0" parent="1" vertex="1">
          <mxGeometry x="-538.5" y="-19" width="116" height="34" as="geometry"/>
        </mxCell>
        <mxCell id="mZSFQpzuG-lNQ4ftAwoU-15" value="修改购物车信息" style="ellipse;whiteSpace=wrap;html=1;fontSize=10.5;fontFamily=宋体;fontStyle=0" parent="1" vertex="1">
          <mxGeometry x="-497.5" y="19" width="100" height="34" as="geometry"/>
        </mxCell>
        <mxCell id="mZSFQpzuG-lNQ4ftAwoU-16" value="删除购物车" style="ellipse;whiteSpace=wrap;html=1;fontSize=10.5;fontFamily=宋体;fontStyle=0" parent="1" vertex="1">
          <mxGeometry x="-470.5" y="61" width="100" height="34" as="geometry"/>
        </mxCell>
        <mxCell id="mZSFQpzuG-lNQ4ftAwoU-17" value="Use" style="endArrow=open;endSize=12;dashed=1;html=1;fontSize=10.5;exitX=1;exitY=0.5;exitDx=0;exitDy=0;entryX=0;entryY=0.5;entryDx=0;entryDy=0;fontFamily=Times new Roman;fontStyle=0" parent="1" source="mZSFQpzuG-lNQ4ftAwoU-3" target="mZSFQpzuG-lNQ4ftAwoU-14" edge="1">
          <mxGeometry width="160" relative="1" as="geometry">
            <mxPoint x="-558.5" y="155" as="sourcePoint"/>
            <mxPoint x="-453.5" y="167" as="targetPoint"/>
          </mxGeometry>
        </mxCell>
        <mxCell id="mZSFQpzuG-lNQ4ftAwoU-18" value="Use" style="endArrow=open;endSize=12;dashed=1;html=1;fontSize=10.5;entryX=0.04;entryY=0.765;entryDx=0;entryDy=0;entryPerimeter=0;fontFamily=Times new Roman;fontStyle=0;exitX=1;exitY=0.5;exitDx=0;exitDy=0;" parent="1" source="mZSFQpzuG-lNQ4ftAwoU-3" target="mZSFQpzuG-lNQ4ftAwoU-15" edge="1">
          <mxGeometry width="160" relative="1" as="geometry">
            <mxPoint x="-559.5" y="92" as="sourcePoint"/>
            <mxPoint x="-448.5" y="172" as="targetPoint"/>
          </mxGeometry>
        </mxCell>
        <mxCell id="mZSFQpzuG-lNQ4ftAwoU-19" value="Use" style="endArrow=open;endSize=12;dashed=1;html=1;fontSize=10.5;entryX=0.04;entryY=0.735;entryDx=0;entryDy=0;entryPerimeter=0;fontFamily=Times new Roman;fontStyle=0" parent="1" target="mZSFQpzuG-lNQ4ftAwoU-16" edge="1">
          <mxGeometry width="160" relative="1" as="geometry">
            <mxPoint x="-559" y="121" as="sourcePoint"/>
            <mxPoint x="-443.5" y="177" as="targetPoint"/>
          </mxGeometry>
        </mxCell>
        <mxCell id="fg0MS4Svys2DaTFpCuoC-1" value="微信用户" style="shape=umlActor;verticalLabelPosition=bottom;labelBackgroundColor=#ffffff;verticalAlign=top;html=1;fontSize=10.5;fontFamily=宋体;fontStyle=0" parent="1" vertex="1">
          <mxGeometry x="-762.5" y="90.5" width="30" height="59" as="geometry"/>
        </mxCell>
        <mxCell id="fg0MS4Svys2DaTFpCuoC-2" value="微信登录" style="ellipse;whiteSpace=wrap;html=1;fontSize=10.5;fontFamily=宋体;fontStyle=0" parent="1" vertex="1">
          <mxGeometry x="-678" y="-2.5" width="101" height="37" as="geometry"/>
        </mxCell>
        <mxCell id="fg0MS4Svys2DaTFpCuoC-3" value="购物车管理" style="ellipse;whiteSpace=wrap;html=1;fontSize=10.5;fontFamily=宋体;fontStyle=0" parent="1" vertex="1">
          <mxGeometry x="-663.5" y="104.5" width="102" height="35" as="geometry"/>
        </mxCell>
        <mxCell id="fg0MS4Svys2DaTFpCuoC-4" value="订单管理" style="ellipse;whiteSpace=wrap;html=1;fontSize=10.5;fontFamily=宋体;fontStyle=0" parent="1" vertex="1">
          <mxGeometry x="-651.5" y="150" width="100" height="34" as="geometry"/>
        </mxCell>
        <mxCell id="fg0MS4Svys2DaTFpCuoC-7" value="删除订单" style="ellipse;whiteSpace=wrap;html=1;fontSize=10.5;fontFamily=宋体;fontStyle=0" parent="1" vertex="1">
          <mxGeometry x="-493.5" y="191.5" width="100" height="34" as="geometry"/>
        </mxCell>
        <mxCell id="fg0MS4Svys2DaTFpCuoC-8" value="" style="endArrow=open;endFill=1;endSize=12;html=1;fontSize=10.5;entryX=0;entryY=0.5;entryDx=0;entryDy=0;fontFamily=宋体;fontStyle=0;exitX=1;exitY=0.3333333333333333;exitDx=0;exitDy=0;exitPerimeter=0;" parent="1" source="fg0MS4Svys2DaTFpCuoC-1" target="fg0MS4Svys2DaTFpCuoC-2" edge="1">
          <mxGeometry width="160" relative="1" as="geometry">
            <mxPoint x="-726.5" y="168" as="sourcePoint"/>
            <mxPoint x="-608.5" y="253" as="targetPoint"/>
          </mxGeometry>
        </mxCell>
        <mxCell id="fg0MS4Svys2DaTFpCuoC-9" value="" style="endArrow=open;endFill=1;endSize=12;html=1;fontSize=10.5;entryX=0;entryY=0.5;entryDx=0;entryDy=0;fontFamily=宋体;fontStyle=0;exitX=1;exitY=0.3333333333333333;exitDx=0;exitDy=0;exitPerimeter=0;" parent="1" source="fg0MS4Svys2DaTFpCuoC-1" target="fg0MS4Svys2DaTFpCuoC-3" edge="1">
          <mxGeometry width="160" relative="1" as="geometry">
            <mxPoint x="-718.5" y="179" as="sourcePoint"/>
            <mxPoint x="-658.5" y="75" as="targetPoint"/>
          </mxGeometry>
        </mxCell>
        <mxCell id="fg0MS4Svys2DaTFpCuoC-10" value="" style="endArrow=open;endFill=1;endSize=12;html=1;fontSize=10.5;entryX=0;entryY=0.5;entryDx=0;entryDy=0;fontFamily=宋体;fontStyle=0;exitX=1;exitY=0.3333333333333333;exitDx=0;exitDy=0;exitPerimeter=0;" parent="1" source="fg0MS4Svys2DaTFpCuoC-1" target="fg0MS4Svys2DaTFpCuoC-4" edge="1">
          <mxGeometry width="160" relative="1" as="geometry">
            <mxPoint x="-717.5" y="188" as="sourcePoint"/>
            <mxPoint x="-653.5" y="80" as="targetPoint"/>
          </mxGeometry>
        </mxCell>
        <mxCell id="fg0MS4Svys2DaTFpCuoC-13" value="Use" style="endArrow=open;endSize=12;dashed=1;html=1;fontSize=10.5;entryX=0;entryY=0.5;entryDx=0;entryDy=0;fontFamily=Times new Roman;fontStyle=0" parent="1" source="fg0MS4Svys2DaTFpCuoC-4" target="fg0MS4Svys2DaTFpCuoC-7" edge="1">
          <mxGeometry x="-0.0542" y="-14" width="160" relative="1" as="geometry">
            <mxPoint x="-559.5" y="153" as="sourcePoint"/>
            <mxPoint x="-608.5" y="226" as="targetPoint"/>
            <mxPoint as="offset"/>
          </mxGeometry>
        </mxCell>
        <mxCell id="fg0MS4Svys2DaTFpCuoC-14" value="添加图书到购物车" style="ellipse;whiteSpace=wrap;html=1;fontSize=10.5;fontFamily=宋体;fontStyle=0" parent="1" vertex="1">
          <mxGeometry x="-538.5" y="-19" width="116" height="34" as="geometry"/>
        </mxCell>
        <mxCell id="fg0MS4Svys2DaTFpCuoC-15" value="修改购物车信息" style="ellipse;whiteSpace=wrap;html=1;fontSize=10.5;fontFamily=宋体;fontStyle=0" parent="1" vertex="1">
          <mxGeometry x="-497.5" y="19" width="100" height="34" as="geometry"/>
        </mxCell>
        <mxCell id="fg0MS4Svys2DaTFpCuoC-16" value="删除购物车" style="ellipse;whiteSpace=wrap;html=1;fontSize=10.5;fontFamily=宋体;fontStyle=0" parent="1" vertex="1">
          <mxGeometry x="-470.5" y="61" width="100" height="34" as="geometry"/>
        </mxCell>
        <mxCell id="fg0MS4Svys2DaTFpCuoC-17" value="Use" style="endArrow=open;endSize=12;dashed=1;html=1;fontSize=10.5;exitX=1;exitY=0.5;exitDx=0;exitDy=0;entryX=0;entryY=0.5;entryDx=0;entryDy=0;fontFamily=Times new Roman;fontStyle=0" parent="1" source="fg0MS4Svys2DaTFpCuoC-3" target="fg0MS4Svys2DaTFpCuoC-14" edge="1">
          <mxGeometry width="160" relative="1" as="geometry">
            <mxPoint x="-558.5" y="155" as="sourcePoint"/>
            <mxPoint x="-453.5" y="167" as="targetPoint"/>
          </mxGeometry>
        </mxCell>
        <mxCell id="fg0MS4Svys2DaTFpCuoC-18" value="Use" style="endArrow=open;endSize=12;dashed=1;html=1;fontSize=10.5;entryX=0.04;entryY=0.765;entryDx=0;entryDy=0;entryPerimeter=0;fontFamily=Times new Roman;fontStyle=0;exitX=1;exitY=0.5;exitDx=0;exitDy=0;" parent="1" source="fg0MS4Svys2DaTFpCuoC-3" target="fg0MS4Svys2DaTFpCuoC-15" edge="1">
          <mxGeometry width="160" relative="1" as="geometry">
            <mxPoint x="-559.5" y="92" as="sourcePoint"/>
            <mxPoint x="-448.5" y="172" as="targetPoint"/>
          </mxGeometry>
        </mxCell>
        <mxCell id="fg0MS4Svys2DaTFpCuoC-19" value="Use" style="endArrow=open;endSize=12;dashed=1;html=1;fontSize=10.5;entryX=0.04;entryY=0.735;entryDx=0;entryDy=0;entryPerimeter=0;fontFamily=Times new Roman;fontStyle=0" parent="1" target="fg0MS4Svys2DaTFpCuoC-16" edge="1">
          <mxGeometry width="160" relative="1" as="geometry">
            <mxPoint x="-559" y="121" as="sourcePoint"/>
            <mxPoint x="-443.5" y="177" as="targetPoint"/>
          </mxGeometry>
        </mxCell>
        <mxCell id="fg0MS4Svys2DaTFpCuoC-26" value="退出登录" style="ellipse;whiteSpace=wrap;html=1;fontSize=10.5;fontFamily=宋体;fontStyle=0" parent="1" vertex="1">
          <mxGeometry x="-646.5" y="192.5" width="101" height="37" as="geometry"/>
        </mxCell>
        <mxCell id="fg0MS4Svys2DaTFpCuoC-27" value="" style="endArrow=open;endFill=1;endSize=12;html=1;fontSize=10.5;entryX=0;entryY=0.5;entryDx=0;entryDy=0;fontFamily=宋体;fontStyle=0" parent="1" target="fg0MS4Svys2DaTFpCuoC-26" edge="1">
          <mxGeometry width="160" relative="1" as="geometry">
            <mxPoint x="-732" y="110" as="sourcePoint"/>
            <mxPoint x="-629" y="220" as="targetPoint"/>
          </mxGeometry>
        </mxCell>
      </root>
    </mxGraphModel>
  </diagram>
  <diagram id="irmYoE7-eMIVADRRRL3H" name="Page-3">
    <mxGraphModel dx="1822" dy="762" grid="1" gridSize="10" guides="1" tooltips="1" connect="1" arrows="1" fold="1" page="0" pageScale="1" pageWidth="827" pageHeight="1169" math="0" shadow="0">
      <root>
        <mxCell id="fXmA7L_1Vn4CoHQ7mkKt-0"/>
        <mxCell id="fXmA7L_1Vn4CoHQ7mkKt-1" parent="fXmA7L_1Vn4CoHQ7mkKt-0"/>
        <mxCell id="fXmA7L_1Vn4CoHQ7mkKt-2" value="" style="shape=umlLifeline;participant=umlActor;perimeter=lifelinePerimeter;whiteSpace=wrap;html=1;container=1;collapsible=0;recursiveResize=0;verticalAlign=top;spacingTop=36;labelBackgroundColor=#ffffff;outlineConnect=0;strokeWidth=1;fontFamily=宋体;fontSize=10.5;" parent="fXmA7L_1Vn4CoHQ7mkKt-1" vertex="1">
          <mxGeometry x="421" y="89.5" width="20" height="403" as="geometry"/>
        </mxCell>
        <mxCell id="fXmA7L_1Vn4CoHQ7mkKt-3" value="&lt;font&gt;AdvinceFilter&lt;/font&gt;" style="shape=umlLifeline;perimeter=lifelinePerimeter;whiteSpace=wrap;html=1;container=1;collapsible=0;recursiveResize=0;outlineConnect=0;strokeWidth=1;fontFamily=Times new Roman;fontSize=10.5;" parent="fXmA7L_1Vn4CoHQ7mkKt-1" vertex="1">
          <mxGeometry x="498" y="89.5" width="113" height="408" as="geometry"/>
        </mxCell>
        <mxCell id="fXmA7L_1Vn4CoHQ7mkKt-4" value="" style="html=1;points=[];perimeter=orthogonalPerimeter;strokeWidth=1;fontFamily=宋体;fontSize=10.5;" parent="fXmA7L_1Vn4CoHQ7mkKt-3" vertex="1">
          <mxGeometry x="52" y="76" width="10" height="261" as="geometry"/>
        </mxCell>
        <mxCell id="fXmA7L_1Vn4CoHQ7mkKt-5" value="&lt;font&gt;UserContrller&lt;/font&gt;" style="shape=umlLifeline;perimeter=lifelinePerimeter;whiteSpace=wrap;html=1;container=1;collapsible=0;recursiveResize=0;outlineConnect=0;strokeWidth=1;fontFamily=Times new Roman;fontSize=10.5;" parent="fXmA7L_1Vn4CoHQ7mkKt-1" vertex="1">
          <mxGeometry x="624" y="89.5" width="113" height="408" as="geometry"/>
        </mxCell>
        <mxCell id="fXmA7L_1Vn4CoHQ7mkKt-6" value="" style="html=1;points=[];perimeter=orthogonalPerimeter;strokeWidth=1;fontFamily=宋体;fontSize=10.5;" parent="fXmA7L_1Vn4CoHQ7mkKt-5" vertex="1">
          <mxGeometry x="52" y="106" width="10" height="198" as="geometry"/>
        </mxCell>
        <mxCell id="fXmA7L_1Vn4CoHQ7mkKt-7" value="自定义登录会话&amp;nbsp;&amp;nbsp;" style="edgeStyle=orthogonalEdgeStyle;html=1;align=left;spacingLeft=2;endArrow=block;rounded=0;strokeWidth=1;fontFamily=宋体;fontSize=10.5;exitX=1.119;exitY=0.48;exitDx=0;exitDy=0;exitPerimeter=0;entryX=1.071;entryY=0.697;entryDx=0;entryDy=0;entryPerimeter=0;" parent="fXmA7L_1Vn4CoHQ7mkKt-5" source="fXmA7L_1Vn4CoHQ7mkKt-6" target="fXmA7L_1Vn4CoHQ7mkKt-6" edge="1">
          <mxGeometry relative="1" as="geometry">
            <mxPoint x="67" y="224" as="sourcePoint"/>
            <Array as="points">
              <mxPoint x="85" y="201"/>
              <mxPoint x="85" y="244"/>
            </Array>
            <mxPoint x="67" y="244" as="targetPoint"/>
          </mxGeometry>
        </mxCell>
        <mxCell id="fXmA7L_1Vn4CoHQ7mkKt-8" value="&lt;font face=&quot;Times new Roman&quot;&gt;微信接口服务&lt;/font&gt;" style="shape=umlLifeline;perimeter=lifelinePerimeter;whiteSpace=wrap;html=1;container=1;collapsible=0;recursiveResize=0;outlineConnect=0;strokeWidth=1;fontFamily=宋体;fontSize=10.5;" parent="fXmA7L_1Vn4CoHQ7mkKt-1" vertex="1">
          <mxGeometry x="752" y="89.5" width="113" height="408" as="geometry"/>
        </mxCell>
        <mxCell id="fXmA7L_1Vn4CoHQ7mkKt-9" value="" style="html=1;points=[];perimeter=orthogonalPerimeter;strokeWidth=1;fontFamily=宋体;fontSize=10.5;" parent="fXmA7L_1Vn4CoHQ7mkKt-8" vertex="1">
          <mxGeometry x="53" y="62" width="10" height="281" as="geometry"/>
        </mxCell>
        <mxCell id="fXmA7L_1Vn4CoHQ7mkKt-10" value="微信登录" style="html=1;verticalAlign=bottom;endArrow=block;entryX=0;entryY=0;strokeWidth=1;fontFamily=宋体;fontSize=10.5;" parent="fXmA7L_1Vn4CoHQ7mkKt-1" edge="1">
          <mxGeometry relative="1" as="geometry">
            <mxPoint x="430.5" y="192.5" as="sourcePoint"/>
            <mxPoint x="550" y="192.5" as="targetPoint"/>
          </mxGeometry>
        </mxCell>
        <mxCell id="fXmA7L_1Vn4CoHQ7mkKt-11" value="用户会话" style="html=1;verticalAlign=bottom;endArrow=open;dashed=1;endSize=8;exitX=0;exitY=0.95;strokeWidth=1;fontFamily=宋体;fontSize=10.5;" parent="fXmA7L_1Vn4CoHQ7mkKt-1" edge="1">
          <mxGeometry relative="1" as="geometry">
            <mxPoint x="430.5" y="404.5" as="targetPoint"/>
            <mxPoint x="550" y="404.5" as="sourcePoint"/>
          </mxGeometry>
        </mxCell>
        <mxCell id="fXmA7L_1Vn4CoHQ7mkKt-12" value="登录code" style="html=1;verticalAlign=bottom;endArrow=block;strokeWidth=1;fontFamily=宋体;fontSize=10.5;exitX=1.1;exitY=0.188;exitDx=0;exitDy=0;exitPerimeter=0;" parent="fXmA7L_1Vn4CoHQ7mkKt-1" source="fXmA7L_1Vn4CoHQ7mkKt-4" target="fXmA7L_1Vn4CoHQ7mkKt-6" edge="1">
          <mxGeometry relative="1" as="geometry">
            <mxPoint x="627.5" y="214.5" as="sourcePoint"/>
            <mxPoint x="695" y="196.5" as="targetPoint"/>
          </mxGeometry>
        </mxCell>
        <mxCell id="fXmA7L_1Vn4CoHQ7mkKt-13" value="用户会话" style="html=1;verticalAlign=bottom;endArrow=open;dashed=1;endSize=8;exitX=0;exitY=0.95;strokeWidth=1;fontFamily=宋体;fontSize=10.5;entryX=1.1;entryY=0.839;entryDx=0;entryDy=0;entryPerimeter=0;" parent="fXmA7L_1Vn4CoHQ7mkKt-1" source="fXmA7L_1Vn4CoHQ7mkKt-6" target="fXmA7L_1Vn4CoHQ7mkKt-4" edge="1">
          <mxGeometry relative="1" as="geometry">
            <mxPoint x="627.5" y="289.5" as="targetPoint"/>
          </mxGeometry>
        </mxCell>
        <mxCell id="fXmA7L_1Vn4CoHQ7mkKt-14" value="登录凭证" style="html=1;verticalAlign=bottom;endArrow=block;strokeWidth=1;fontFamily=宋体;fontSize=10.5;exitX=0.9;exitY=0.192;exitDx=0;exitDy=0;exitPerimeter=0;" parent="fXmA7L_1Vn4CoHQ7mkKt-1" source="fXmA7L_1Vn4CoHQ7mkKt-6" target="fXmA7L_1Vn4CoHQ7mkKt-9" edge="1">
          <mxGeometry relative="1" as="geometry">
            <mxPoint x="782" y="230.5" as="sourcePoint"/>
          </mxGeometry>
        </mxCell>
        <mxCell id="fXmA7L_1Vn4CoHQ7mkKt-15" value="微信用户" style="text;html=1;resizable=0;points=[];autosize=1;align=left;verticalAlign=top;spacingTop=-4;fontSize=10.5;fontFamily=宋体;" parent="fXmA7L_1Vn4CoHQ7mkKt-1" vertex="1">
          <mxGeometry x="431" y="122.5" width="58" height="13" as="geometry"/>
        </mxCell>
        <mxCell id="fXmA7L_1Vn4CoHQ7mkKt-16" value="登录会话标识" style="html=1;verticalAlign=bottom;endArrow=open;dashed=1;endSize=8;strokeWidth=1;fontFamily=宋体;fontSize=10.5;entryX=1.1;entryY=0.348;entryDx=0;entryDy=0;entryPerimeter=0;" parent="fXmA7L_1Vn4CoHQ7mkKt-1" source="fXmA7L_1Vn4CoHQ7mkKt-9" target="fXmA7L_1Vn4CoHQ7mkKt-6" edge="1">
          <mxGeometry relative="1" as="geometry">
            <mxPoint x="698" y="264.5" as="targetPoint"/>
          </mxGeometry>
        </mxCell>
        <mxCell id="qszSIyoWIWxZGVnPmQRt-0" value="" style="shape=umlLifeline;participant=umlActor;perimeter=lifelinePerimeter;whiteSpace=wrap;html=1;container=1;collapsible=0;recursiveResize=0;verticalAlign=top;spacingTop=36;labelBackgroundColor=#ffffff;outlineConnect=0;strokeWidth=1;fontFamily=宋体;fontSize=10.5;" parent="fXmA7L_1Vn4CoHQ7mkKt-1" vertex="1">
          <mxGeometry x="-30" y="82.5" width="20" height="318" as="geometry"/>
        </mxCell>
        <mxCell id="qszSIyoWIWxZGVnPmQRt-1" value="&lt;font&gt;AdvinceFilter&lt;/font&gt;" style="shape=umlLifeline;perimeter=lifelinePerimeter;whiteSpace=wrap;html=1;container=1;collapsible=0;recursiveResize=0;outlineConnect=0;strokeWidth=1;fontFamily=Times new Roman;fontSize=10.5;" parent="fXmA7L_1Vn4CoHQ7mkKt-1" vertex="1">
          <mxGeometry x="47" y="82.5" width="113" height="324" as="geometry"/>
        </mxCell>
        <mxCell id="qszSIyoWIWxZGVnPmQRt-2" value="" style="html=1;points=[];perimeter=orthogonalPerimeter;strokeWidth=1;fontFamily=宋体;fontSize=10.5;" parent="qszSIyoWIWxZGVnPmQRt-1" vertex="1">
          <mxGeometry x="52" y="76" width="10" height="231" as="geometry"/>
        </mxCell>
        <mxCell id="qszSIyoWIWxZGVnPmQRt-3" value="&lt;font&gt;UserContrller&lt;/font&gt;" style="shape=umlLifeline;perimeter=lifelinePerimeter;whiteSpace=wrap;html=1;container=1;collapsible=0;recursiveResize=0;outlineConnect=0;strokeWidth=1;fontFamily=Times new Roman;fontSize=10.5;" parent="fXmA7L_1Vn4CoHQ7mkKt-1" vertex="1">
          <mxGeometry x="173" y="82.5" width="113" height="318" as="geometry"/>
        </mxCell>
        <mxCell id="qszSIyoWIWxZGVnPmQRt-4" value="" style="html=1;points=[];perimeter=orthogonalPerimeter;strokeWidth=1;fontFamily=宋体;fontSize=10.5;" parent="qszSIyoWIWxZGVnPmQRt-3" vertex="1">
          <mxGeometry x="52" y="106" width="10" height="198" as="geometry"/>
        </mxCell>
        <mxCell id="qszSIyoWIWxZGVnPmQRt-5" value="自定义登录会话&amp;nbsp;&amp;nbsp;" style="edgeStyle=orthogonalEdgeStyle;html=1;align=left;spacingLeft=2;endArrow=block;rounded=0;strokeWidth=1;fontFamily=宋体;fontSize=10.5;exitX=0.967;exitY=0.194;exitDx=0;exitDy=0;exitPerimeter=0;entryX=1.1;entryY=0.5;entryDx=0;entryDy=0;entryPerimeter=0;" parent="qszSIyoWIWxZGVnPmQRt-3" source="qszSIyoWIWxZGVnPmQRt-4" target="qszSIyoWIWxZGVnPmQRt-4" edge="1">
          <mxGeometry x="0.0189" y="-41" relative="1" as="geometry">
            <mxPoint x="67" y="224" as="sourcePoint"/>
            <Array as="points">
              <mxPoint x="85" y="144"/>
              <mxPoint x="85" y="205"/>
            </Array>
            <mxPoint x="67" y="244" as="targetPoint"/>
            <mxPoint as="offset"/>
          </mxGeometry>
        </mxCell>
        <mxCell id="qszSIyoWIWxZGVnPmQRt-6" value="管理员登录" style="html=1;verticalAlign=bottom;endArrow=block;entryX=0;entryY=0;strokeWidth=1;fontFamily=宋体;fontSize=10.5;" parent="fXmA7L_1Vn4CoHQ7mkKt-1" edge="1">
          <mxGeometry relative="1" as="geometry">
            <mxPoint x="-20.5" y="185.5" as="sourcePoint"/>
            <mxPoint x="99" y="185.5" as="targetPoint"/>
          </mxGeometry>
        </mxCell>
        <mxCell id="qszSIyoWIWxZGVnPmQRt-7" value="用户会话" style="html=1;verticalAlign=bottom;endArrow=open;dashed=1;endSize=8;exitX=0;exitY=0.95;strokeWidth=1;fontFamily=宋体;fontSize=10.5;" parent="fXmA7L_1Vn4CoHQ7mkKt-1" edge="1">
          <mxGeometry relative="1" as="geometry">
            <mxPoint x="-22.5" y="362.5" as="targetPoint"/>
            <mxPoint x="97" y="362.5" as="sourcePoint"/>
          </mxGeometry>
        </mxCell>
        <mxCell id="qszSIyoWIWxZGVnPmQRt-8" value="用户名+密码" style="html=1;verticalAlign=bottom;endArrow=block;strokeWidth=1;fontFamily=宋体;fontSize=10.5;exitX=1.1;exitY=0.188;exitDx=0;exitDy=0;exitPerimeter=0;" parent="fXmA7L_1Vn4CoHQ7mkKt-1" source="qszSIyoWIWxZGVnPmQRt-2" target="qszSIyoWIWxZGVnPmQRt-4" edge="1">
          <mxGeometry relative="1" as="geometry">
            <mxPoint x="176.5" y="207.5" as="sourcePoint"/>
            <mxPoint x="244" y="189.5" as="targetPoint"/>
          </mxGeometry>
        </mxCell>
        <mxCell id="qszSIyoWIWxZGVnPmQRt-9" value="用户会话" style="html=1;verticalAlign=bottom;endArrow=open;dashed=1;endSize=8;exitX=0;exitY=0.697;strokeWidth=1;fontFamily=宋体;fontSize=10.5;exitDx=0;exitDy=0;exitPerimeter=0;" parent="fXmA7L_1Vn4CoHQ7mkKt-1" source="qszSIyoWIWxZGVnPmQRt-4" target="qszSIyoWIWxZGVnPmQRt-2" edge="1">
          <mxGeometry relative="1" as="geometry">
            <mxPoint x="176.5" y="282.5" as="targetPoint"/>
          </mxGeometry>
        </mxCell>
        <mxCell id="qszSIyoWIWxZGVnPmQRt-10" value="管理员用户" style="text;html=1;resizable=0;points=[];autosize=1;align=left;verticalAlign=top;spacingTop=-4;fontSize=10.5;fontFamily=宋体;" parent="fXmA7L_1Vn4CoHQ7mkKt-1" vertex="1">
          <mxGeometry x="-20" y="115.5" width="70" height="13" as="geometry"/>
        </mxCell>
        <mxCell id="b7N-LLIl24rIbtpsCyc3-0" value="" style="shape=umlLifeline;participant=umlActor;perimeter=lifelinePerimeter;whiteSpace=wrap;html=1;container=1;collapsible=0;recursiveResize=0;verticalAlign=top;spacingTop=36;labelBackgroundColor=#ffffff;outlineConnect=0;strokeWidth=1;fontFamily=宋体;fontSize=10.5;" parent="fXmA7L_1Vn4CoHQ7mkKt-1" vertex="1">
          <mxGeometry x="-36.5" y="497.5" width="20" height="318" as="geometry"/>
        </mxCell>
        <mxCell id="b7N-LLIl24rIbtpsCyc3-1" value="&lt;font&gt;AuthenticationFilter&lt;/font&gt;" style="shape=umlLifeline;perimeter=lifelinePerimeter;whiteSpace=wrap;html=1;container=1;collapsible=0;recursiveResize=0;outlineConnect=0;strokeWidth=1;fontFamily=Times new Roman;fontSize=10.5;" parent="fXmA7L_1Vn4CoHQ7mkKt-1" vertex="1">
          <mxGeometry x="40.5" y="497.5" width="113" height="324" as="geometry"/>
        </mxCell>
        <mxCell id="b7N-LLIl24rIbtpsCyc3-2" value="" style="html=1;points=[];perimeter=orthogonalPerimeter;strokeWidth=1;fontFamily=宋体;fontSize=10.5;" parent="b7N-LLIl24rIbtpsCyc3-1" vertex="1">
          <mxGeometry x="52" y="76" width="10" height="231" as="geometry"/>
        </mxCell>
        <mxCell id="b7N-LLIl24rIbtpsCyc3-3" value="&lt;font&gt;UserContrller&lt;/font&gt;" style="shape=umlLifeline;perimeter=lifelinePerimeter;whiteSpace=wrap;html=1;container=1;collapsible=0;recursiveResize=0;outlineConnect=0;strokeWidth=1;fontFamily=Times new Roman;fontSize=10.5;" parent="fXmA7L_1Vn4CoHQ7mkKt-1" vertex="1">
          <mxGeometry x="166.5" y="498" width="89" height="318" as="geometry"/>
        </mxCell>
        <mxCell id="b7N-LLIl24rIbtpsCyc3-4" value="" style="html=1;points=[];perimeter=orthogonalPerimeter;strokeWidth=1;fontFamily=宋体;fontSize=10.5;" parent="b7N-LLIl24rIbtpsCyc3-3" vertex="1">
          <mxGeometry x="40" y="99" width="10" height="198" as="geometry"/>
        </mxCell>
        <mxCell id="b7N-LLIl24rIbtpsCyc3-5" value="用户登录态" style="html=1;verticalAlign=bottom;endArrow=block;entryX=0;entryY=0;strokeWidth=1;fontFamily=宋体;fontSize=10.5;" parent="fXmA7L_1Vn4CoHQ7mkKt-1" edge="1">
          <mxGeometry relative="1" as="geometry">
            <mxPoint x="-27" y="600.5" as="sourcePoint"/>
            <mxPoint x="92.5" y="600.5" as="targetPoint"/>
          </mxGeometry>
        </mxCell>
        <mxCell id="b7N-LLIl24rIbtpsCyc3-6" value="操作结果" style="html=1;verticalAlign=bottom;endArrow=open;dashed=1;endSize=8;exitX=0;exitY=0.95;strokeWidth=1;fontFamily=宋体;fontSize=10.5;" parent="fXmA7L_1Vn4CoHQ7mkKt-1" edge="1">
          <mxGeometry relative="1" as="geometry">
            <mxPoint x="-29" y="777.5" as="targetPoint"/>
            <mxPoint x="90.5" y="777.5" as="sourcePoint"/>
          </mxGeometry>
        </mxCell>
        <mxCell id="b7N-LLIl24rIbtpsCyc3-7" value="商品分类唯一标识" style="html=1;verticalAlign=bottom;endArrow=block;strokeWidth=1;fontFamily=宋体;fontSize=10.5;exitX=1.1;exitY=0.188;exitDx=0;exitDy=0;exitPerimeter=0;" parent="fXmA7L_1Vn4CoHQ7mkKt-1" source="b7N-LLIl24rIbtpsCyc3-2" target="b7N-LLIl24rIbtpsCyc3-4" edge="1">
          <mxGeometry relative="1" as="geometry">
            <mxPoint x="170" y="622.5" as="sourcePoint"/>
            <mxPoint x="237.5" y="604.5" as="targetPoint"/>
          </mxGeometry>
        </mxCell>
        <mxCell id="b7N-LLIl24rIbtpsCyc3-8" value="查询结果" style="html=1;verticalAlign=bottom;endArrow=open;dashed=1;endSize=8;exitX=0;exitY=0.697;strokeWidth=1;fontFamily=宋体;fontSize=10.5;exitDx=0;exitDy=0;exitPerimeter=0;" parent="fXmA7L_1Vn4CoHQ7mkKt-1" source="b7N-LLIl24rIbtpsCyc3-4" target="b7N-LLIl24rIbtpsCyc3-2" edge="1">
          <mxGeometry relative="1" as="geometry">
            <mxPoint x="170" y="697.5" as="targetPoint"/>
          </mxGeometry>
        </mxCell>
        <mxCell id="b7N-LLIl24rIbtpsCyc3-9" value="微信小程序用户" style="text;html=1;resizable=0;points=[];autosize=1;align=left;verticalAlign=top;spacingTop=-4;fontSize=10.5;fontFamily=宋体;" parent="fXmA7L_1Vn4CoHQ7mkKt-1" vertex="1">
          <mxGeometry x="-47.5" y="543.5" width="94" height="13" as="geometry"/>
        </mxCell>
        <mxCell id="caAp6UeM-okE0U90zg4t-0" value="" style="shape=umlLifeline;participant=umlActor;perimeter=lifelinePerimeter;whiteSpace=wrap;html=1;container=1;collapsible=0;recursiveResize=0;verticalAlign=top;spacingTop=36;labelBackgroundColor=#ffffff;outlineConnect=0;strokeWidth=1;fontFamily=宋体;fontSize=10.5;" parent="fXmA7L_1Vn4CoHQ7mkKt-1" vertex="1">
          <mxGeometry x="471" y="597" width="20" height="318" as="geometry"/>
        </mxCell>
        <mxCell id="caAp6UeM-okE0U90zg4t-1" value="&lt;font&gt;AuthenticationFilter&lt;/font&gt;" style="shape=umlLifeline;perimeter=lifelinePerimeter;whiteSpace=wrap;html=1;container=1;collapsible=0;recursiveResize=0;outlineConnect=0;strokeWidth=1;fontFamily=Times new Roman;fontSize=10.5;" parent="fXmA7L_1Vn4CoHQ7mkKt-1" vertex="1">
          <mxGeometry x="548" y="597" width="113" height="324" as="geometry"/>
        </mxCell>
        <mxCell id="caAp6UeM-okE0U90zg4t-2" value="" style="html=1;points=[];perimeter=orthogonalPerimeter;strokeWidth=1;fontFamily=宋体;fontSize=10.5;" parent="caAp6UeM-okE0U90zg4t-1" vertex="1">
          <mxGeometry x="52" y="76" width="10" height="231" as="geometry"/>
        </mxCell>
        <mxCell id="caAp6UeM-okE0U90zg4t-3" value="&lt;font&gt;CartContrller&lt;/font&gt;" style="shape=umlLifeline;perimeter=lifelinePerimeter;whiteSpace=wrap;html=1;container=1;collapsible=0;recursiveResize=0;outlineConnect=0;strokeWidth=1;fontFamily=Times new Roman;fontSize=10.5;" parent="fXmA7L_1Vn4CoHQ7mkKt-1" vertex="1">
          <mxGeometry x="674" y="597.5" width="89" height="318" as="geometry"/>
        </mxCell>
        <mxCell id="caAp6UeM-okE0U90zg4t-4" value="" style="html=1;points=[];perimeter=orthogonalPerimeter;strokeWidth=1;fontFamily=宋体;fontSize=10.5;" parent="caAp6UeM-okE0U90zg4t-3" vertex="1">
          <mxGeometry x="40" y="99" width="10" height="198" as="geometry"/>
        </mxCell>
        <mxCell id="caAp6UeM-okE0U90zg4t-5" value="用户登录态" style="html=1;verticalAlign=bottom;endArrow=block;entryX=0;entryY=0;strokeWidth=1;fontFamily=宋体;fontSize=10.5;" parent="fXmA7L_1Vn4CoHQ7mkKt-1" edge="1">
          <mxGeometry relative="1" as="geometry">
            <mxPoint x="480.5" y="700" as="sourcePoint"/>
            <mxPoint x="600" y="700" as="targetPoint"/>
          </mxGeometry>
        </mxCell>
        <mxCell id="caAp6UeM-okE0U90zg4t-6" value="操作结果" style="html=1;verticalAlign=bottom;endArrow=open;dashed=1;endSize=8;exitX=0;exitY=0.95;strokeWidth=1;fontFamily=宋体;fontSize=10.5;" parent="fXmA7L_1Vn4CoHQ7mkKt-1" edge="1">
          <mxGeometry relative="1" as="geometry">
            <mxPoint x="478.5" y="877" as="targetPoint"/>
            <mxPoint x="598" y="877" as="sourcePoint"/>
          </mxGeometry>
        </mxCell>
        <mxCell id="caAp6UeM-okE0U90zg4t-7" value="商品信息" style="html=1;verticalAlign=bottom;endArrow=block;strokeWidth=1;fontFamily=宋体;fontSize=10.5;exitX=1.1;exitY=0.188;exitDx=0;exitDy=0;exitPerimeter=0;" parent="fXmA7L_1Vn4CoHQ7mkKt-1" source="caAp6UeM-okE0U90zg4t-2" target="caAp6UeM-okE0U90zg4t-4" edge="1">
          <mxGeometry relative="1" as="geometry">
            <mxPoint x="677.5" y="722" as="sourcePoint"/>
            <mxPoint x="745" y="704" as="targetPoint"/>
          </mxGeometry>
        </mxCell>
        <mxCell id="caAp6UeM-okE0U90zg4t-8" value="操作结果" style="html=1;verticalAlign=bottom;endArrow=open;dashed=1;endSize=8;exitX=0;exitY=0.697;strokeWidth=1;fontFamily=宋体;fontSize=10.5;exitDx=0;exitDy=0;exitPerimeter=0;" parent="fXmA7L_1Vn4CoHQ7mkKt-1" source="caAp6UeM-okE0U90zg4t-4" target="caAp6UeM-okE0U90zg4t-2" edge="1">
          <mxGeometry relative="1" as="geometry">
            <mxPoint x="677.5" y="797" as="targetPoint"/>
          </mxGeometry>
        </mxCell>
        <mxCell id="caAp6UeM-okE0U90zg4t-9" value="微信小程序用户" style="text;html=1;resizable=0;points=[];autosize=1;align=left;verticalAlign=top;spacingTop=-4;fontSize=10.5;fontFamily=宋体;" parent="fXmA7L_1Vn4CoHQ7mkKt-1" vertex="1">
          <mxGeometry x="460" y="643" width="94" height="13" as="geometry"/>
        </mxCell>
        <mxCell id="ABbGgv_WzSZCWnQRkZ6k-0" value="" style="shape=umlLifeline;participant=umlActor;perimeter=lifelinePerimeter;whiteSpace=wrap;html=1;container=1;collapsible=0;recursiveResize=0;verticalAlign=top;spacingTop=36;labelBackgroundColor=#ffffff;outlineConnect=0;strokeWidth=1;fontFamily=宋体;fontSize=10.5;" parent="fXmA7L_1Vn4CoHQ7mkKt-1" vertex="1">
          <mxGeometry x="-25.5" y="934" width="20" height="318" as="geometry"/>
        </mxCell>
        <mxCell id="ABbGgv_WzSZCWnQRkZ6k-1" value="&lt;font&gt;AuthenticationFilter&lt;/font&gt;" style="shape=umlLifeline;perimeter=lifelinePerimeter;whiteSpace=wrap;html=1;container=1;collapsible=0;recursiveResize=0;outlineConnect=0;strokeWidth=1;fontFamily=Times new Roman;fontSize=10.5;" parent="fXmA7L_1Vn4CoHQ7mkKt-1" vertex="1">
          <mxGeometry x="51.5" y="934" width="113" height="324" as="geometry"/>
        </mxCell>
        <mxCell id="ABbGgv_WzSZCWnQRkZ6k-2" value="" style="html=1;points=[];perimeter=orthogonalPerimeter;strokeWidth=1;fontFamily=宋体;fontSize=10.5;" parent="ABbGgv_WzSZCWnQRkZ6k-1" vertex="1">
          <mxGeometry x="52" y="76" width="10" height="231" as="geometry"/>
        </mxCell>
        <mxCell id="ABbGgv_WzSZCWnQRkZ6k-3" value="&lt;font&gt;CartContrller&lt;/font&gt;" style="shape=umlLifeline;perimeter=lifelinePerimeter;whiteSpace=wrap;html=1;container=1;collapsible=0;recursiveResize=0;outlineConnect=0;strokeWidth=1;fontFamily=Times new Roman;fontSize=10.5;" parent="fXmA7L_1Vn4CoHQ7mkKt-1" vertex="1">
          <mxGeometry x="177.5" y="934.5" width="89" height="318" as="geometry"/>
        </mxCell>
        <mxCell id="ABbGgv_WzSZCWnQRkZ6k-4" value="" style="html=1;points=[];perimeter=orthogonalPerimeter;strokeWidth=1;fontFamily=宋体;fontSize=10.5;" parent="ABbGgv_WzSZCWnQRkZ6k-3" vertex="1">
          <mxGeometry x="40" y="99" width="10" height="198" as="geometry"/>
        </mxCell>
        <mxCell id="ABbGgv_WzSZCWnQRkZ6k-5" value="用户登录态" style="html=1;verticalAlign=bottom;endArrow=block;entryX=0;entryY=0;strokeWidth=1;fontFamily=宋体;fontSize=10.5;" parent="fXmA7L_1Vn4CoHQ7mkKt-1" edge="1">
          <mxGeometry relative="1" as="geometry">
            <mxPoint x="-16" y="1037" as="sourcePoint"/>
            <mxPoint x="103.5" y="1037" as="targetPoint"/>
          </mxGeometry>
        </mxCell>
        <mxCell id="ABbGgv_WzSZCWnQRkZ6k-6" value="操作结果" style="html=1;verticalAlign=bottom;endArrow=open;dashed=1;endSize=8;exitX=0;exitY=0.95;strokeWidth=1;fontFamily=宋体;fontSize=10.5;" parent="fXmA7L_1Vn4CoHQ7mkKt-1" edge="1">
          <mxGeometry relative="1" as="geometry">
            <mxPoint x="-18" y="1214" as="targetPoint"/>
            <mxPoint x="101.5" y="1214" as="sourcePoint"/>
          </mxGeometry>
        </mxCell>
        <mxCell id="ABbGgv_WzSZCWnQRkZ6k-7" value="商品信息" style="html=1;verticalAlign=bottom;endArrow=block;strokeWidth=1;fontFamily=宋体;fontSize=10.5;exitX=1.1;exitY=0.188;exitDx=0;exitDy=0;exitPerimeter=0;" parent="fXmA7L_1Vn4CoHQ7mkKt-1" source="ABbGgv_WzSZCWnQRkZ6k-2" target="ABbGgv_WzSZCWnQRkZ6k-4" edge="1">
          <mxGeometry relative="1" as="geometry">
            <mxPoint x="181" y="1059" as="sourcePoint"/>
            <mxPoint x="248.5" y="1041" as="targetPoint"/>
          </mxGeometry>
        </mxCell>
        <mxCell id="ABbGgv_WzSZCWnQRkZ6k-8" value="操作结果" style="html=1;verticalAlign=bottom;endArrow=open;dashed=1;endSize=8;exitX=0;exitY=0.697;strokeWidth=1;fontFamily=宋体;fontSize=10.5;exitDx=0;exitDy=0;exitPerimeter=0;" parent="fXmA7L_1Vn4CoHQ7mkKt-1" source="ABbGgv_WzSZCWnQRkZ6k-4" target="ABbGgv_WzSZCWnQRkZ6k-2" edge="1">
          <mxGeometry relative="1" as="geometry">
            <mxPoint x="181" y="1134" as="targetPoint"/>
          </mxGeometry>
        </mxCell>
        <mxCell id="ABbGgv_WzSZCWnQRkZ6k-9" value="微信小程序用户" style="text;html=1;resizable=0;points=[];autosize=1;align=left;verticalAlign=top;spacingTop=-4;fontSize=10.5;fontFamily=宋体;" parent="fXmA7L_1Vn4CoHQ7mkKt-1" vertex="1">
          <mxGeometry x="-36.5" y="980" width="94" height="13" as="geometry"/>
        </mxCell>
        <mxCell id="shbAVH00zN_sXbuRnfZv-0" value="" style="shape=umlLifeline;participant=umlActor;perimeter=lifelinePerimeter;whiteSpace=wrap;html=1;container=1;collapsible=0;recursiveResize=0;verticalAlign=top;spacingTop=36;labelBackgroundColor=#ffffff;outlineConnect=0;strokeWidth=1;fontFamily=宋体;fontSize=10.5;" parent="fXmA7L_1Vn4CoHQ7mkKt-1" vertex="1">
          <mxGeometry x="484" y="1050" width="20" height="318" as="geometry"/>
        </mxCell>
        <mxCell id="shbAVH00zN_sXbuRnfZv-1" value="&lt;font&gt;AuthenticationFilter&lt;/font&gt;" style="shape=umlLifeline;perimeter=lifelinePerimeter;whiteSpace=wrap;html=1;container=1;collapsible=0;recursiveResize=0;outlineConnect=0;strokeWidth=1;fontFamily=Times new Roman;fontSize=10.5;" parent="fXmA7L_1Vn4CoHQ7mkKt-1" vertex="1">
          <mxGeometry x="558" y="1050" width="113" height="324" as="geometry"/>
        </mxCell>
        <mxCell id="shbAVH00zN_sXbuRnfZv-2" value="" style="html=1;points=[];perimeter=orthogonalPerimeter;strokeWidth=1;fontFamily=宋体;fontSize=10.5;" parent="shbAVH00zN_sXbuRnfZv-1" vertex="1">
          <mxGeometry x="52" y="76" width="10" height="231" as="geometry"/>
        </mxCell>
        <mxCell id="shbAVH00zN_sXbuRnfZv-3" value="&lt;font&gt;OrderController&lt;/font&gt;" style="shape=umlLifeline;perimeter=lifelinePerimeter;whiteSpace=wrap;html=1;container=1;collapsible=0;recursiveResize=0;outlineConnect=0;strokeWidth=1;fontFamily=Times new Roman;fontSize=10.5;" parent="fXmA7L_1Vn4CoHQ7mkKt-1" vertex="1">
          <mxGeometry x="684" y="1050.5" width="89" height="318" as="geometry"/>
        </mxCell>
        <mxCell id="shbAVH00zN_sXbuRnfZv-4" value="" style="html=1;points=[];perimeter=orthogonalPerimeter;strokeWidth=1;fontFamily=宋体;fontSize=10.5;" parent="shbAVH00zN_sXbuRnfZv-3" vertex="1">
          <mxGeometry x="40" y="99" width="10" height="198" as="geometry"/>
        </mxCell>
        <mxCell id="shbAVH00zN_sXbuRnfZv-5" value="用户登录态" style="html=1;verticalAlign=bottom;endArrow=block;entryX=0;entryY=0;strokeWidth=1;fontFamily=宋体;fontSize=10.5;" parent="fXmA7L_1Vn4CoHQ7mkKt-1" source="shbAVH00zN_sXbuRnfZv-0" edge="1">
          <mxGeometry relative="1" as="geometry">
            <mxPoint x="497" y="1153.5" as="sourcePoint"/>
            <mxPoint x="610" y="1153" as="targetPoint"/>
          </mxGeometry>
        </mxCell>
        <mxCell id="shbAVH00zN_sXbuRnfZv-6" value="支付结果" style="html=1;verticalAlign=bottom;endArrow=open;dashed=1;endSize=8;exitX=0;exitY=0.95;strokeWidth=1;fontFamily=宋体;fontSize=10.5;" parent="fXmA7L_1Vn4CoHQ7mkKt-1" target="shbAVH00zN_sXbuRnfZv-0" edge="1">
          <mxGeometry relative="1" as="geometry">
            <mxPoint x="505" y="1335.5" as="targetPoint"/>
            <mxPoint x="608" y="1330" as="sourcePoint"/>
          </mxGeometry>
        </mxCell>
        <mxCell id="shbAVH00zN_sXbuRnfZv-7" value="商品信息" style="html=1;verticalAlign=bottom;endArrow=block;strokeWidth=1;fontFamily=宋体;fontSize=10.5;exitX=1.1;exitY=0.188;exitDx=0;exitDy=0;exitPerimeter=0;" parent="fXmA7L_1Vn4CoHQ7mkKt-1" source="shbAVH00zN_sXbuRnfZv-2" target="shbAVH00zN_sXbuRnfZv-4" edge="1">
          <mxGeometry relative="1" as="geometry">
            <mxPoint x="687.5" y="1175" as="sourcePoint"/>
            <mxPoint x="755" y="1157" as="targetPoint"/>
          </mxGeometry>
        </mxCell>
        <mxCell id="shbAVH00zN_sXbuRnfZv-8" value="支付结果" style="html=1;verticalAlign=bottom;endArrow=open;dashed=1;endSize=8;exitX=0;exitY=0.697;strokeWidth=1;fontFamily=宋体;fontSize=10.5;exitDx=0;exitDy=0;exitPerimeter=0;" parent="fXmA7L_1Vn4CoHQ7mkKt-1" source="shbAVH00zN_sXbuRnfZv-4" target="shbAVH00zN_sXbuRnfZv-2" edge="1">
          <mxGeometry relative="1" as="geometry">
            <mxPoint x="687.5" y="1250" as="targetPoint"/>
          </mxGeometry>
        </mxCell>
        <mxCell id="shbAVH00zN_sXbuRnfZv-9" value="微信小程序用户" style="text;html=1;resizable=0;points=[];autosize=1;align=left;verticalAlign=top;spacingTop=-4;fontSize=10.5;fontFamily=宋体;" parent="fXmA7L_1Vn4CoHQ7mkKt-1" vertex="1">
          <mxGeometry x="470" y="1096" width="94" height="13" as="geometry"/>
        </mxCell>
        <mxCell id="shbAVH00zN_sXbuRnfZv-10" value="&lt;font&gt;WxPay&lt;/font&gt;" style="shape=umlLifeline;perimeter=lifelinePerimeter;whiteSpace=wrap;html=1;container=1;collapsible=0;recursiveResize=0;outlineConnect=0;strokeWidth=1;fontFamily=Times new Roman;fontSize=10.5;" parent="fXmA7L_1Vn4CoHQ7mkKt-1" vertex="1">
          <mxGeometry x="779" y="1051.5" width="56" height="320" as="geometry"/>
        </mxCell>
        <mxCell id="shbAVH00zN_sXbuRnfZv-11" value="" style="html=1;points=[];perimeter=orthogonalPerimeter;strokeWidth=1;fontFamily=宋体;fontSize=10.5;" parent="shbAVH00zN_sXbuRnfZv-10" vertex="1">
          <mxGeometry x="23" y="121" width="10" height="124" as="geometry"/>
        </mxCell>
        <mxCell id="shbAVH00zN_sXbuRnfZv-12" value="支付结果" style="html=1;verticalAlign=bottom;endArrow=open;dashed=1;endSize=8;strokeWidth=1;fontFamily=宋体;fontSize=10.5;exitX=0.143;exitY=0.741;exitDx=0;exitDy=0;exitPerimeter=0;entryX=1.129;entryY=0.574;entryDx=0;entryDy=0;entryPerimeter=0;" parent="fXmA7L_1Vn4CoHQ7mkKt-1" source="shbAVH00zN_sXbuRnfZv-11" target="shbAVH00zN_sXbuRnfZv-4" edge="1">
          <mxGeometry relative="1" as="geometry">
            <mxPoint x="741" y="1267.5" as="targetPoint"/>
            <mxPoint x="814" y="1273.5" as="sourcePoint"/>
          </mxGeometry>
        </mxCell>
        <mxCell id="shbAVH00zN_sXbuRnfZv-13" value="预支付订单" style="html=1;verticalAlign=bottom;endArrow=block;strokeWidth=1;fontFamily=宋体;fontSize=10.5;entryX=0.029;entryY=0.336;entryDx=0;entryDy=0;entryPerimeter=0;" parent="fXmA7L_1Vn4CoHQ7mkKt-1" target="shbAVH00zN_sXbuRnfZv-11" edge="1">
          <mxGeometry relative="1" as="geometry">
            <mxPoint x="735" y="1213.5" as="sourcePoint"/>
            <mxPoint x="734" y="1179.357142857143" as="targetPoint"/>
          </mxGeometry>
        </mxCell>
        <mxCell id="FKryXQ_fG5dvn-DwXPzW-0" value="" style="shape=umlLifeline;participant=umlActor;perimeter=lifelinePerimeter;whiteSpace=wrap;html=1;container=1;collapsible=0;recursiveResize=0;verticalAlign=top;spacingTop=36;labelBackgroundColor=#ffffff;outlineConnect=0;strokeWidth=1;fontFamily=宋体;fontSize=10.5;" parent="fXmA7L_1Vn4CoHQ7mkKt-1" vertex="1">
          <mxGeometry x="-3" y="1380" width="20" height="318" as="geometry"/>
        </mxCell>
        <mxCell id="FKryXQ_fG5dvn-DwXPzW-1" value="&lt;font&gt;AuthenticationFilter&lt;/font&gt;" style="shape=umlLifeline;perimeter=lifelinePerimeter;whiteSpace=wrap;html=1;container=1;collapsible=0;recursiveResize=0;outlineConnect=0;strokeWidth=1;fontFamily=Times new Roman;fontSize=10.5;" parent="fXmA7L_1Vn4CoHQ7mkKt-1" vertex="1">
          <mxGeometry x="71" y="1380" width="113" height="324" as="geometry"/>
        </mxCell>
        <mxCell id="FKryXQ_fG5dvn-DwXPzW-2" value="" style="html=1;points=[];perimeter=orthogonalPerimeter;strokeWidth=1;fontFamily=宋体;fontSize=10.5;" parent="FKryXQ_fG5dvn-DwXPzW-1" vertex="1">
          <mxGeometry x="52" y="76" width="10" height="231" as="geometry"/>
        </mxCell>
        <mxCell id="FKryXQ_fG5dvn-DwXPzW-3" value="&lt;font&gt;OrderController&lt;/font&gt;" style="shape=umlLifeline;perimeter=lifelinePerimeter;whiteSpace=wrap;html=1;container=1;collapsible=0;recursiveResize=0;outlineConnect=0;strokeWidth=1;fontFamily=Times new Roman;fontSize=10.5;" parent="fXmA7L_1Vn4CoHQ7mkKt-1" vertex="1">
          <mxGeometry x="197" y="1380.5" width="89" height="318" as="geometry"/>
        </mxCell>
        <mxCell id="FKryXQ_fG5dvn-DwXPzW-4" value="" style="html=1;points=[];perimeter=orthogonalPerimeter;strokeWidth=1;fontFamily=宋体;fontSize=10.5;" parent="FKryXQ_fG5dvn-DwXPzW-3" vertex="1">
          <mxGeometry x="40" y="99" width="10" height="198" as="geometry"/>
        </mxCell>
        <mxCell id="FKryXQ_fG5dvn-DwXPzW-5" value="用户登录态" style="html=1;verticalAlign=bottom;endArrow=block;entryX=0;entryY=0;strokeWidth=1;fontFamily=宋体;fontSize=10.5;" parent="fXmA7L_1Vn4CoHQ7mkKt-1" source="FKryXQ_fG5dvn-DwXPzW-0" edge="1">
          <mxGeometry relative="1" as="geometry">
            <mxPoint x="10" y="1483.5" as="sourcePoint"/>
            <mxPoint x="123" y="1483" as="targetPoint"/>
          </mxGeometry>
        </mxCell>
        <mxCell id="FKryXQ_fG5dvn-DwXPzW-6" value="未支付结果消息" style="html=1;verticalAlign=bottom;endArrow=open;dashed=1;endSize=8;exitX=0;exitY=0.95;strokeWidth=1;fontFamily=宋体;fontSize=10.5;" parent="fXmA7L_1Vn4CoHQ7mkKt-1" target="FKryXQ_fG5dvn-DwXPzW-0" edge="1">
          <mxGeometry relative="1" as="geometry">
            <mxPoint x="18" y="1665.5" as="targetPoint"/>
            <mxPoint x="121" y="1660" as="sourcePoint"/>
          </mxGeometry>
        </mxCell>
        <mxCell id="FKryXQ_fG5dvn-DwXPzW-7" value="商品信息" style="html=1;verticalAlign=bottom;endArrow=block;strokeWidth=1;fontFamily=宋体;fontSize=10.5;exitX=1.1;exitY=0.188;exitDx=0;exitDy=0;exitPerimeter=0;" parent="fXmA7L_1Vn4CoHQ7mkKt-1" source="FKryXQ_fG5dvn-DwXPzW-2" target="FKryXQ_fG5dvn-DwXPzW-4" edge="1">
          <mxGeometry relative="1" as="geometry">
            <mxPoint x="200.5" y="1505" as="sourcePoint"/>
            <mxPoint x="268" y="1487" as="targetPoint"/>
          </mxGeometry>
        </mxCell>
        <mxCell id="FKryXQ_fG5dvn-DwXPzW-8" value="未支付结果消息" style="html=1;verticalAlign=bottom;endArrow=open;dashed=1;endSize=8;exitX=0;exitY=0.697;strokeWidth=1;fontFamily=宋体;fontSize=10.5;exitDx=0;exitDy=0;exitPerimeter=0;" parent="fXmA7L_1Vn4CoHQ7mkKt-1" source="FKryXQ_fG5dvn-DwXPzW-4" target="FKryXQ_fG5dvn-DwXPzW-2" edge="1">
          <mxGeometry relative="1" as="geometry">
            <mxPoint x="200.5" y="1580" as="targetPoint"/>
          </mxGeometry>
        </mxCell>
        <mxCell id="FKryXQ_fG5dvn-DwXPzW-9" value="微信小程序用户" style="text;html=1;resizable=0;points=[];autosize=1;align=left;verticalAlign=top;spacingTop=-4;fontSize=10.5;fontFamily=宋体;" parent="fXmA7L_1Vn4CoHQ7mkKt-1" vertex="1">
          <mxGeometry x="-17" y="1426" width="94" height="13" as="geometry"/>
        </mxCell>
        <mxCell id="FKryXQ_fG5dvn-DwXPzW-10" value="&lt;font&gt;WxPay&lt;/font&gt;" style="shape=umlLifeline;perimeter=lifelinePerimeter;whiteSpace=wrap;html=1;container=1;collapsible=0;recursiveResize=0;outlineConnect=0;strokeWidth=1;fontFamily=Times new Roman;fontSize=10.5;" parent="fXmA7L_1Vn4CoHQ7mkKt-1" vertex="1">
          <mxGeometry x="292" y="1381.5" width="56" height="320" as="geometry"/>
        </mxCell>
        <mxCell id="FKryXQ_fG5dvn-DwXPzW-11" value="" style="html=1;points=[];perimeter=orthogonalPerimeter;strokeWidth=1;fontFamily=宋体;fontSize=10.5;" parent="FKryXQ_fG5dvn-DwXPzW-10" vertex="1">
          <mxGeometry x="23" y="121" width="10" height="124" as="geometry"/>
        </mxCell>
        <mxCell id="FKryXQ_fG5dvn-DwXPzW-12" value="未支付结果" style="html=1;verticalAlign=bottom;endArrow=open;dashed=1;endSize=8;strokeWidth=1;fontFamily=宋体;fontSize=10.5;exitX=0.143;exitY=0.741;exitDx=0;exitDy=0;exitPerimeter=0;entryX=1.129;entryY=0.574;entryDx=0;entryDy=0;entryPerimeter=0;" parent="fXmA7L_1Vn4CoHQ7mkKt-1" edge="1">
          <mxGeometry relative="1" as="geometry">
            <mxPoint x="248.5238095238094" y="1601.2142857142858" as="targetPoint"/>
            <mxPoint x="316.6190476190475" y="1602.1666666666665" as="sourcePoint"/>
          </mxGeometry>
        </mxCell>
        <mxCell id="FKryXQ_fG5dvn-DwXPzW-13" value="预支付订单" style="html=1;verticalAlign=bottom;endArrow=block;strokeWidth=1;fontFamily=宋体;fontSize=10.5;entryX=0.029;entryY=0.336;entryDx=0;entryDy=0;entryPerimeter=0;" parent="fXmA7L_1Vn4CoHQ7mkKt-1" target="FKryXQ_fG5dvn-DwXPzW-11" edge="1">
          <mxGeometry relative="1" as="geometry">
            <mxPoint x="248" y="1543.5" as="sourcePoint"/>
            <mxPoint x="247" y="1509.357142857143" as="targetPoint"/>
          </mxGeometry>
        </mxCell>
        <mxCell id="FKryXQ_fG5dvn-DwXPzW-14" value="取消支付" style="edgeStyle=orthogonalEdgeStyle;html=1;align=left;spacingLeft=2;endArrow=block;rounded=0;strokeWidth=1;fontFamily=宋体;fontSize=10.5;entryX=1.1;entryY=0.5;entryDx=0;entryDy=0;entryPerimeter=0;" parent="fXmA7L_1Vn4CoHQ7mkKt-1" edge="1">
          <mxGeometry x="0.0189" y="-41" relative="1" as="geometry">
            <mxPoint x="327" y="1552.5" as="sourcePoint"/>
            <Array as="points">
              <mxPoint x="349" y="1552.5"/>
              <mxPoint x="349" y="1588.5"/>
            </Array>
            <mxPoint x="327" y="1588.5" as="targetPoint"/>
            <mxPoint as="offset"/>
          </mxGeometry>
        </mxCell>
        <mxCell id="wZ6SAUZxnpaujarLBzan-0" value="" style="shape=umlLifeline;participant=umlActor;perimeter=lifelinePerimeter;whiteSpace=wrap;html=1;container=1;collapsible=0;recursiveResize=0;verticalAlign=top;spacingTop=36;labelBackgroundColor=#ffffff;outlineConnect=0;strokeWidth=1;fontFamily=宋体;fontSize=10.5;" parent="fXmA7L_1Vn4CoHQ7mkKt-1" vertex="1">
          <mxGeometry x="448" y="1476.6666666666667" width="20" height="318" as="geometry"/>
        </mxCell>
        <mxCell id="wZ6SAUZxnpaujarLBzan-1" value="&lt;font&gt;AuthenticationFilter&lt;/font&gt;" style="shape=umlLifeline;perimeter=lifelinePerimeter;whiteSpace=wrap;html=1;container=1;collapsible=0;recursiveResize=0;outlineConnect=0;strokeWidth=1;fontFamily=Times new Roman;fontSize=10.5;" parent="fXmA7L_1Vn4CoHQ7mkKt-1" vertex="1">
          <mxGeometry x="522" y="1476.6666666666667" width="113" height="324" as="geometry"/>
        </mxCell>
        <mxCell id="wZ6SAUZxnpaujarLBzan-2" value="" style="html=1;points=[];perimeter=orthogonalPerimeter;strokeWidth=1;fontFamily=宋体;fontSize=10.5;" parent="wZ6SAUZxnpaujarLBzan-1" vertex="1">
          <mxGeometry x="52" y="76" width="10" height="231" as="geometry"/>
        </mxCell>
        <mxCell id="wZ6SAUZxnpaujarLBzan-3" value="&lt;font&gt;OrderController&lt;/font&gt;" style="shape=umlLifeline;perimeter=lifelinePerimeter;whiteSpace=wrap;html=1;container=1;collapsible=0;recursiveResize=0;outlineConnect=0;strokeWidth=1;fontFamily=Times new Roman;fontSize=10.5;" parent="fXmA7L_1Vn4CoHQ7mkKt-1" vertex="1">
          <mxGeometry x="648" y="1477.1666666666667" width="89" height="318" as="geometry"/>
        </mxCell>
        <mxCell id="wZ6SAUZxnpaujarLBzan-4" value="" style="html=1;points=[];perimeter=orthogonalPerimeter;strokeWidth=1;fontFamily=宋体;fontSize=10.5;" parent="wZ6SAUZxnpaujarLBzan-3" vertex="1">
          <mxGeometry x="40" y="99" width="10" height="198" as="geometry"/>
        </mxCell>
        <mxCell id="wZ6SAUZxnpaujarLBzan-5" value="用户登录态" style="html=1;verticalAlign=bottom;endArrow=block;entryX=0;entryY=0;strokeWidth=1;fontFamily=宋体;fontSize=10.5;" parent="fXmA7L_1Vn4CoHQ7mkKt-1" source="wZ6SAUZxnpaujarLBzan-0" edge="1">
          <mxGeometry relative="1" as="geometry">
            <mxPoint x="461" y="1580.1666666666667" as="sourcePoint"/>
            <mxPoint x="574" y="1579.6666666666667" as="targetPoint"/>
          </mxGeometry>
        </mxCell>
        <mxCell id="wZ6SAUZxnpaujarLBzan-6" value="订单记录集" style="html=1;verticalAlign=bottom;endArrow=open;dashed=1;endSize=8;exitX=0;exitY=0.95;strokeWidth=1;fontFamily=宋体;fontSize=10.5;" parent="fXmA7L_1Vn4CoHQ7mkKt-1" target="wZ6SAUZxnpaujarLBzan-0" edge="1">
          <mxGeometry relative="1" as="geometry">
            <mxPoint x="469" y="1762.1666666666667" as="targetPoint"/>
            <mxPoint x="572" y="1756.6666666666667" as="sourcePoint"/>
          </mxGeometry>
        </mxCell>
        <mxCell id="wZ6SAUZxnpaujarLBzan-7" value="查看历史订单" style="html=1;verticalAlign=bottom;endArrow=block;strokeWidth=1;fontFamily=宋体;fontSize=10.5;exitX=1.1;exitY=0.188;exitDx=0;exitDy=0;exitPerimeter=0;" parent="fXmA7L_1Vn4CoHQ7mkKt-1" source="wZ6SAUZxnpaujarLBzan-2" target="wZ6SAUZxnpaujarLBzan-4" edge="1">
          <mxGeometry relative="1" as="geometry">
            <mxPoint x="651.5" y="1601.6666666666667" as="sourcePoint"/>
            <mxPoint x="719" y="1583.6666666666667" as="targetPoint"/>
          </mxGeometry>
        </mxCell>
        <mxCell id="wZ6SAUZxnpaujarLBzan-8" value="订单记录集" style="html=1;verticalAlign=bottom;endArrow=open;dashed=1;endSize=8;exitX=0;exitY=0.697;strokeWidth=1;fontFamily=宋体;fontSize=10.5;exitDx=0;exitDy=0;exitPerimeter=0;" parent="fXmA7L_1Vn4CoHQ7mkKt-1" source="wZ6SAUZxnpaujarLBzan-4" target="wZ6SAUZxnpaujarLBzan-2" edge="1">
          <mxGeometry relative="1" as="geometry">
            <mxPoint x="651.5" y="1676.6666666666667" as="targetPoint"/>
          </mxGeometry>
        </mxCell>
        <mxCell id="wZ6SAUZxnpaujarLBzan-9" value="微信小程序用户" style="text;html=1;resizable=0;points=[];autosize=1;align=left;verticalAlign=top;spacingTop=-4;fontSize=10.5;fontFamily=宋体;" parent="fXmA7L_1Vn4CoHQ7mkKt-1" vertex="1">
          <mxGeometry x="434" y="1522.6666666666667" width="94" height="13" as="geometry"/>
        </mxCell>
        <mxCell id="LuWnDs10aM1FwLu-B8X7-0" value="" style="shape=umlLifeline;participant=umlActor;perimeter=lifelinePerimeter;whiteSpace=wrap;html=1;container=1;collapsible=0;recursiveResize=0;verticalAlign=top;spacingTop=36;labelBackgroundColor=#ffffff;outlineConnect=0;strokeWidth=1;fontFamily=宋体;fontSize=10.5;" parent="fXmA7L_1Vn4CoHQ7mkKt-1" vertex="1">
          <mxGeometry x="54.5" y="1842.5" width="20" height="318" as="geometry"/>
        </mxCell>
        <mxCell id="LuWnDs10aM1FwLu-B8X7-1" value="&lt;font&gt;AuthenticationFilter&lt;/font&gt;" style="shape=umlLifeline;perimeter=lifelinePerimeter;whiteSpace=wrap;html=1;container=1;collapsible=0;recursiveResize=0;outlineConnect=0;strokeWidth=1;fontFamily=Times new Roman;fontSize=10.5;" parent="fXmA7L_1Vn4CoHQ7mkKt-1" vertex="1">
          <mxGeometry x="128.5" y="1842.5" width="113" height="324" as="geometry"/>
        </mxCell>
        <mxCell id="LuWnDs10aM1FwLu-B8X7-2" value="" style="html=1;points=[];perimeter=orthogonalPerimeter;strokeWidth=1;fontFamily=宋体;fontSize=10.5;" parent="LuWnDs10aM1FwLu-B8X7-1" vertex="1">
          <mxGeometry x="52" y="76" width="10" height="231" as="geometry"/>
        </mxCell>
        <mxCell id="LuWnDs10aM1FwLu-B8X7-3" value="&lt;font&gt;OrderController&lt;/font&gt;" style="shape=umlLifeline;perimeter=lifelinePerimeter;whiteSpace=wrap;html=1;container=1;collapsible=0;recursiveResize=0;outlineConnect=0;strokeWidth=1;fontFamily=Times new Roman;fontSize=10.5;" parent="fXmA7L_1Vn4CoHQ7mkKt-1" vertex="1">
          <mxGeometry x="254.5" y="1843" width="89" height="318" as="geometry"/>
        </mxCell>
        <mxCell id="LuWnDs10aM1FwLu-B8X7-4" value="" style="html=1;points=[];perimeter=orthogonalPerimeter;strokeWidth=1;fontFamily=宋体;fontSize=10.5;" parent="LuWnDs10aM1FwLu-B8X7-3" vertex="1">
          <mxGeometry x="40" y="99" width="10" height="198" as="geometry"/>
        </mxCell>
        <mxCell id="LuWnDs10aM1FwLu-B8X7-5" value="用户登录态" style="html=1;verticalAlign=bottom;endArrow=block;entryX=0;entryY=0;strokeWidth=1;fontFamily=宋体;fontSize=10.5;" parent="fXmA7L_1Vn4CoHQ7mkKt-1" source="LuWnDs10aM1FwLu-B8X7-0" edge="1">
          <mxGeometry relative="1" as="geometry">
            <mxPoint x="67.5" y="1946" as="sourcePoint"/>
            <mxPoint x="180.5" y="1945.5" as="targetPoint"/>
          </mxGeometry>
        </mxCell>
        <mxCell id="LuWnDs10aM1FwLu-B8X7-6" value="操作结果" style="html=1;verticalAlign=bottom;endArrow=open;dashed=1;endSize=8;exitX=0;exitY=0.95;strokeWidth=1;fontFamily=宋体;fontSize=10.5;" parent="fXmA7L_1Vn4CoHQ7mkKt-1" edge="1">
          <mxGeometry relative="1" as="geometry">
            <mxPoint x="64.52380952380963" y="2118.5" as="targetPoint"/>
            <mxPoint x="178.5" y="2118.5" as="sourcePoint"/>
          </mxGeometry>
        </mxCell>
        <mxCell id="LuWnDs10aM1FwLu-B8X7-7" value="删除订单" style="html=1;verticalAlign=bottom;endArrow=block;strokeWidth=1;fontFamily=宋体;fontSize=10.5;exitX=1.1;exitY=0.188;exitDx=0;exitDy=0;exitPerimeter=0;" parent="fXmA7L_1Vn4CoHQ7mkKt-1" source="LuWnDs10aM1FwLu-B8X7-2" target="LuWnDs10aM1FwLu-B8X7-4" edge="1">
          <mxGeometry relative="1" as="geometry">
            <mxPoint x="258" y="1967.5" as="sourcePoint"/>
            <mxPoint x="325.5" y="1949.5" as="targetPoint"/>
          </mxGeometry>
        </mxCell>
        <mxCell id="LuWnDs10aM1FwLu-B8X7-8" value="操作结果" style="html=1;verticalAlign=bottom;endArrow=open;dashed=1;endSize=8;exitX=0;exitY=0.697;strokeWidth=1;fontFamily=宋体;fontSize=10.5;exitDx=0;exitDy=0;exitPerimeter=0;" parent="fXmA7L_1Vn4CoHQ7mkKt-1" source="LuWnDs10aM1FwLu-B8X7-4" target="LuWnDs10aM1FwLu-B8X7-2" edge="1">
          <mxGeometry relative="1" as="geometry">
            <mxPoint x="258" y="2042.5" as="targetPoint"/>
          </mxGeometry>
        </mxCell>
        <mxCell id="LuWnDs10aM1FwLu-B8X7-9" value="微信小程序用户" style="text;html=1;resizable=0;points=[];autosize=1;align=left;verticalAlign=top;spacingTop=-4;fontSize=10.5;fontFamily=宋体;" parent="fXmA7L_1Vn4CoHQ7mkKt-1" vertex="1">
          <mxGeometry x="40.5" y="1888.5" width="94" height="13" as="geometry"/>
        </mxCell>
        <mxCell id="KQao7O1nJy1v_dKPjhnj-0" value="" style="shape=umlLifeline;participant=umlActor;perimeter=lifelinePerimeter;whiteSpace=wrap;html=1;container=1;collapsible=0;recursiveResize=0;verticalAlign=top;spacingTop=36;labelBackgroundColor=#ffffff;outlineConnect=0;strokeWidth=1;fontFamily=宋体;fontSize=10.5;" parent="fXmA7L_1Vn4CoHQ7mkKt-1" vertex="1">
          <mxGeometry x="489" y="1910.8333333333335" width="20" height="318" as="geometry"/>
        </mxCell>
        <mxCell id="KQao7O1nJy1v_dKPjhnj-1" value="&lt;font&gt;AuthenticationFilter&lt;/font&gt;" style="shape=umlLifeline;perimeter=lifelinePerimeter;whiteSpace=wrap;html=1;container=1;collapsible=0;recursiveResize=0;outlineConnect=0;strokeWidth=1;fontFamily=Times new Roman;fontSize=10.5;" parent="fXmA7L_1Vn4CoHQ7mkKt-1" vertex="1">
          <mxGeometry x="563" y="1910.8333333333335" width="113" height="324" as="geometry"/>
        </mxCell>
        <mxCell id="KQao7O1nJy1v_dKPjhnj-2" value="" style="html=1;points=[];perimeter=orthogonalPerimeter;strokeWidth=1;fontFamily=宋体;fontSize=10.5;" parent="KQao7O1nJy1v_dKPjhnj-1" vertex="1">
          <mxGeometry x="52" y="76" width="10" height="231" as="geometry"/>
        </mxCell>
        <mxCell id="KQao7O1nJy1v_dKPjhnj-3" value="&lt;font&gt;Reader&lt;/font&gt;" style="shape=umlLifeline;perimeter=lifelinePerimeter;whiteSpace=wrap;html=1;container=1;collapsible=0;recursiveResize=0;outlineConnect=0;strokeWidth=1;fontFamily=Times new Roman;fontSize=10.5;" parent="fXmA7L_1Vn4CoHQ7mkKt-1" vertex="1">
          <mxGeometry x="689" y="1911.8333333333335" width="68" height="318" as="geometry"/>
        </mxCell>
        <mxCell id="KQao7O1nJy1v_dKPjhnj-4" value="" style="html=1;points=[];perimeter=orthogonalPerimeter;strokeWidth=1;fontFamily=宋体;fontSize=10.5;" parent="KQao7O1nJy1v_dKPjhnj-3" vertex="1">
          <mxGeometry x="29" y="99" width="10" height="198" as="geometry"/>
        </mxCell>
        <mxCell id="KQao7O1nJy1v_dKPjhnj-5" value="用户登录态" style="html=1;verticalAlign=bottom;endArrow=block;entryX=0;entryY=0;strokeWidth=1;fontFamily=宋体;fontSize=10.5;" parent="fXmA7L_1Vn4CoHQ7mkKt-1" source="KQao7O1nJy1v_dKPjhnj-0" edge="1">
          <mxGeometry relative="1" as="geometry">
            <mxPoint x="502" y="2014.3333333333335" as="sourcePoint"/>
            <mxPoint x="615" y="2013.833333333333" as="targetPoint"/>
          </mxGeometry>
        </mxCell>
        <mxCell id="KQao7O1nJy1v_dKPjhnj-6" value="操作结果" style="html=1;verticalAlign=bottom;endArrow=open;dashed=1;endSize=8;exitX=0;exitY=0.95;strokeWidth=1;fontFamily=宋体;fontSize=10.5;" parent="fXmA7L_1Vn4CoHQ7mkKt-1" target="KQao7O1nJy1v_dKPjhnj-0" edge="1">
          <mxGeometry relative="1" as="geometry">
            <mxPoint x="510" y="2196.3333333333335" as="targetPoint"/>
            <mxPoint x="613" y="2190.8333333333335" as="sourcePoint"/>
          </mxGeometry>
        </mxCell>
        <mxCell id="KQao7O1nJy1v_dKPjhnj-7" value="数据同步指令" style="html=1;verticalAlign=bottom;endArrow=block;strokeWidth=1;fontFamily=宋体;fontSize=10.5;exitX=1.1;exitY=0.188;exitDx=0;exitDy=0;exitPerimeter=0;" parent="fXmA7L_1Vn4CoHQ7mkKt-1" source="KQao7O1nJy1v_dKPjhnj-2" target="KQao7O1nJy1v_dKPjhnj-4" edge="1">
          <mxGeometry relative="1" as="geometry">
            <mxPoint x="692.5" y="2035.8333333333335" as="sourcePoint"/>
            <mxPoint x="760" y="2017.8333333333335" as="targetPoint"/>
          </mxGeometry>
        </mxCell>
        <mxCell id="KQao7O1nJy1v_dKPjhnj-8" value="查询结果" style="html=1;verticalAlign=bottom;endArrow=open;dashed=1;endSize=8;exitX=0;exitY=0.697;strokeWidth=1;fontFamily=宋体;fontSize=10.5;exitDx=0;exitDy=0;exitPerimeter=0;" parent="fXmA7L_1Vn4CoHQ7mkKt-1" source="KQao7O1nJy1v_dKPjhnj-4" target="KQao7O1nJy1v_dKPjhnj-2" edge="1">
          <mxGeometry relative="1" as="geometry">
            <mxPoint x="692.5" y="2110.8333333333335" as="targetPoint"/>
          </mxGeometry>
        </mxCell>
        <mxCell id="KQao7O1nJy1v_dKPjhnj-9" value="管理员" style="text;html=1;resizable=0;points=[];autosize=1;align=left;verticalAlign=top;spacingTop=-4;fontSize=10.5;fontFamily=宋体;" parent="fXmA7L_1Vn4CoHQ7mkKt-1" vertex="1">
          <mxGeometry x="475" y="1956.8333333333335" width="46" height="13" as="geometry"/>
        </mxCell>
        <mxCell id="KQao7O1nJy1v_dKPjhnj-10" value="&lt;font&gt;DataSource&lt;/font&gt;" style="shape=umlLifeline;perimeter=lifelinePerimeter;whiteSpace=wrap;html=1;container=1;collapsible=0;recursiveResize=0;outlineConnect=0;strokeWidth=1;fontFamily=Times new Roman;fontSize=10.5;" parent="fXmA7L_1Vn4CoHQ7mkKt-1" vertex="1">
          <mxGeometry x="770" y="1912.8333333333335" width="65" height="320" as="geometry"/>
        </mxCell>
        <mxCell id="KQao7O1nJy1v_dKPjhnj-11" value="" style="html=1;points=[];perimeter=orthogonalPerimeter;strokeWidth=1;fontFamily=宋体;fontSize=10.5;" parent="KQao7O1nJy1v_dKPjhnj-10" vertex="1">
          <mxGeometry x="23" y="121" width="10" height="124" as="geometry"/>
        </mxCell>
        <mxCell id="KQao7O1nJy1v_dKPjhnj-12" value="数据集" style="html=1;verticalAlign=bottom;endArrow=open;dashed=1;endSize=8;strokeWidth=1;fontFamily=宋体;fontSize=10.5;exitX=0.143;exitY=0.741;exitDx=0;exitDy=0;exitPerimeter=0;entryX=1.129;entryY=0.574;entryDx=0;entryDy=0;entryPerimeter=0;" parent="fXmA7L_1Vn4CoHQ7mkKt-1" source="KQao7O1nJy1v_dKPjhnj-11" target="KQao7O1nJy1v_dKPjhnj-4" edge="1">
          <mxGeometry relative="1" as="geometry">
            <mxPoint x="746" y="2128.3333333333335" as="targetPoint"/>
            <mxPoint x="819" y="2134.3333333333335" as="sourcePoint"/>
          </mxGeometry>
        </mxCell>
        <mxCell id="KQao7O1nJy1v_dKPjhnj-13" value="JDBC配置" style="html=1;verticalAlign=bottom;endArrow=block;strokeWidth=1;fontFamily=宋体;fontSize=10.5;entryX=0.029;entryY=0.336;entryDx=0;entryDy=0;entryPerimeter=0;" parent="fXmA7L_1Vn4CoHQ7mkKt-1" target="KQao7O1nJy1v_dKPjhnj-11" edge="1">
          <mxGeometry relative="1" as="geometry">
            <mxPoint x="730" y="2074.8333333333335" as="sourcePoint"/>
            <mxPoint x="739" y="2040.1904761904761" as="targetPoint"/>
          </mxGeometry>
        </mxCell>
        <mxCell id="DDUEiQLnzPHaYNmAnwI0-0" value="" style="shape=umlLifeline;participant=umlActor;perimeter=lifelinePerimeter;whiteSpace=wrap;html=1;container=1;collapsible=0;recursiveResize=0;verticalAlign=top;spacingTop=36;labelBackgroundColor=#ffffff;outlineConnect=0;strokeWidth=1;fontFamily=宋体;fontSize=10.5;" parent="fXmA7L_1Vn4CoHQ7mkKt-1" vertex="1">
          <mxGeometry x="85" y="2312" width="20" height="318" as="geometry"/>
        </mxCell>
        <mxCell id="DDUEiQLnzPHaYNmAnwI0-1" value="&lt;font&gt;AuthenticationFilter&lt;/font&gt;" style="shape=umlLifeline;perimeter=lifelinePerimeter;whiteSpace=wrap;html=1;container=1;collapsible=0;recursiveResize=0;outlineConnect=0;strokeWidth=1;fontFamily=Times new Roman;fontSize=10.5;" parent="fXmA7L_1Vn4CoHQ7mkKt-1" vertex="1">
          <mxGeometry x="159" y="2312" width="113" height="324" as="geometry"/>
        </mxCell>
        <mxCell id="DDUEiQLnzPHaYNmAnwI0-2" value="" style="html=1;points=[];perimeter=orthogonalPerimeter;strokeWidth=1;fontFamily=宋体;fontSize=10.5;" parent="DDUEiQLnzPHaYNmAnwI0-1" vertex="1">
          <mxGeometry x="52" y="76" width="10" height="231" as="geometry"/>
        </mxCell>
        <mxCell id="DDUEiQLnzPHaYNmAnwI0-3" value="&lt;font&gt;Writer&lt;/font&gt;" style="shape=umlLifeline;perimeter=lifelinePerimeter;whiteSpace=wrap;html=1;container=1;collapsible=0;recursiveResize=0;outlineConnect=0;strokeWidth=1;fontFamily=Times new Roman;fontSize=10.5;" parent="fXmA7L_1Vn4CoHQ7mkKt-1" vertex="1">
          <mxGeometry x="285" y="2313" width="68" height="318" as="geometry"/>
        </mxCell>
        <mxCell id="DDUEiQLnzPHaYNmAnwI0-4" value="" style="html=1;points=[];perimeter=orthogonalPerimeter;strokeWidth=1;fontFamily=宋体;fontSize=10.5;" parent="DDUEiQLnzPHaYNmAnwI0-3" vertex="1">
          <mxGeometry x="29" y="99" width="10" height="198" as="geometry"/>
        </mxCell>
        <mxCell id="DDUEiQLnzPHaYNmAnwI0-5" value="用户登录态" style="html=1;verticalAlign=bottom;endArrow=block;entryX=0;entryY=0;strokeWidth=1;fontFamily=宋体;fontSize=10.5;" parent="fXmA7L_1Vn4CoHQ7mkKt-1" source="DDUEiQLnzPHaYNmAnwI0-0" edge="1">
          <mxGeometry relative="1" as="geometry">
            <mxPoint x="98" y="2415.5" as="sourcePoint"/>
            <mxPoint x="211" y="2415" as="targetPoint"/>
          </mxGeometry>
        </mxCell>
        <mxCell id="DDUEiQLnzPHaYNmAnwI0-6" value="操作结果" style="html=1;verticalAlign=bottom;endArrow=open;dashed=1;endSize=8;exitX=0;exitY=0.95;strokeWidth=1;fontFamily=宋体;fontSize=10.5;" parent="fXmA7L_1Vn4CoHQ7mkKt-1" target="DDUEiQLnzPHaYNmAnwI0-0" edge="1">
          <mxGeometry relative="1" as="geometry">
            <mxPoint x="106" y="2597.5" as="targetPoint"/>
            <mxPoint x="209" y="2592" as="sourcePoint"/>
          </mxGeometry>
        </mxCell>
        <mxCell id="DDUEiQLnzPHaYNmAnwI0-7" value="JDBC配置" style="html=1;verticalAlign=bottom;endArrow=block;strokeWidth=1;fontFamily=宋体;fontSize=10.5;exitX=1.1;exitY=0.188;exitDx=0;exitDy=0;exitPerimeter=0;" parent="fXmA7L_1Vn4CoHQ7mkKt-1" source="DDUEiQLnzPHaYNmAnwI0-2" target="DDUEiQLnzPHaYNmAnwI0-4" edge="1">
          <mxGeometry relative="1" as="geometry">
            <mxPoint x="288.5" y="2437" as="sourcePoint"/>
            <mxPoint x="356" y="2419" as="targetPoint"/>
          </mxGeometry>
        </mxCell>
        <mxCell id="DDUEiQLnzPHaYNmAnwI0-8" value="查询结果" style="html=1;verticalAlign=bottom;endArrow=open;dashed=1;endSize=8;exitX=0;exitY=0.697;strokeWidth=1;fontFamily=宋体;fontSize=10.5;exitDx=0;exitDy=0;exitPerimeter=0;" parent="fXmA7L_1Vn4CoHQ7mkKt-1" edge="1">
          <mxGeometry relative="1" as="geometry">
            <mxPoint x="221" y="2563.142857142857" as="targetPoint"/>
            <mxPoint x="313.8571428571429" y="2563.142857142857" as="sourcePoint"/>
          </mxGeometry>
        </mxCell>
        <mxCell id="DDUEiQLnzPHaYNmAnwI0-9" value="管理员" style="text;html=1;resizable=0;points=[];autosize=1;align=left;verticalAlign=top;spacingTop=-4;fontSize=10.5;fontFamily=宋体;" parent="fXmA7L_1Vn4CoHQ7mkKt-1" vertex="1">
          <mxGeometry x="71" y="2358" width="46" height="13" as="geometry"/>
        </mxCell>
        <mxCell id="DDUEiQLnzPHaYNmAnwI0-10" value="&lt;font&gt;DataSource&lt;/font&gt;" style="shape=umlLifeline;perimeter=lifelinePerimeter;whiteSpace=wrap;html=1;container=1;collapsible=0;recursiveResize=0;outlineConnect=0;strokeWidth=1;fontFamily=Times new Roman;fontSize=10.5;" parent="fXmA7L_1Vn4CoHQ7mkKt-1" vertex="1">
          <mxGeometry x="366" y="2314" width="65" height="320" as="geometry"/>
        </mxCell>
        <mxCell id="DDUEiQLnzPHaYNmAnwI0-11" value="" style="html=1;points=[];perimeter=orthogonalPerimeter;strokeWidth=1;fontFamily=宋体;fontSize=10.5;" parent="DDUEiQLnzPHaYNmAnwI0-10" vertex="1">
          <mxGeometry x="23" y="121" width="10" height="124" as="geometry"/>
        </mxCell>
        <mxCell id="DDUEiQLnzPHaYNmAnwI0-12" value="执行结果" style="html=1;verticalAlign=bottom;endArrow=open;dashed=1;endSize=8;strokeWidth=1;fontFamily=宋体;fontSize=10.5;exitX=0.143;exitY=0.741;exitDx=0;exitDy=0;exitPerimeter=0;entryX=1.129;entryY=0.574;entryDx=0;entryDy=0;entryPerimeter=0;" parent="fXmA7L_1Vn4CoHQ7mkKt-1" edge="1">
          <mxGeometry relative="1" as="geometry">
            <mxPoint x="325.2857142857142" y="2549.5714285714284" as="targetPoint"/>
            <mxPoint x="390.42857142857133" y="2550.714285714286" as="sourcePoint"/>
          </mxGeometry>
        </mxCell>
        <mxCell id="DDUEiQLnzPHaYNmAnwI0-13" value="SQL指令" style="html=1;verticalAlign=bottom;endArrow=block;strokeWidth=1;fontFamily=宋体;fontSize=10.5;entryX=0.029;entryY=0.336;entryDx=0;entryDy=0;entryPerimeter=0;" parent="fXmA7L_1Vn4CoHQ7mkKt-1" edge="1">
          <mxGeometry relative="1" as="geometry">
            <mxPoint x="326" y="2462" as="sourcePoint"/>
            <mxPoint x="389.2857142857142" y="2462.4285714285716" as="targetPoint"/>
          </mxGeometry>
        </mxCell>
        <mxCell id="DDUEiQLnzPHaYNmAnwI0-14" value="操作数据集" style="html=1;verticalAlign=bottom;endArrow=block;strokeWidth=1;fontFamily=宋体;fontSize=10.5;entryX=0.167;entryY=0.562;entryDx=0;entryDy=0;entryPerimeter=0;exitX=0.9;exitY=0.466;exitDx=0;exitDy=0;exitPerimeter=0;" parent="fXmA7L_1Vn4CoHQ7mkKt-1" source="DDUEiQLnzPHaYNmAnwI0-4" target="DDUEiQLnzPHaYNmAnwI0-11" edge="1">
          <mxGeometry relative="1" as="geometry">
            <mxPoint x="324" y="2503" as="sourcePoint"/>
            <mxPoint x="387.2857142857142" y="2503.4285714285716" as="targetPoint"/>
          </mxGeometry>
        </mxCell>
      </root>
    </mxGraphModel>
  </diagram>
  <diagram id="HgOLez3iQ1dQKK0LfWJN" name="Page-4">
    <mxGraphModel dx="2622" dy="362" grid="0" gridSize="10" guides="1" tooltips="1" connect="1" arrows="1" fold="1" page="0" pageScale="1" pageWidth="827" pageHeight="1169" math="0" shadow="0">
      <root>
        <mxCell id="WVCPOKXCLXuoi2PYIQQJ-0"/>
        <mxCell id="WVCPOKXCLXuoi2PYIQQJ-1" parent="WVCPOKXCLXuoi2PYIQQJ-0"/>
        <mxCell id="kM1Ig4bHRmuJbyG__2Mf-0" value="&lt;p style=&quot;margin: 4px 0px 0px ; text-align: center ; font-size: 11px&quot;&gt;&lt;span lang=&quot;EN-US&quot;&gt;AmsUser&lt;/span&gt;&lt;br&gt;&lt;/p&gt;&lt;hr style=&quot;font-size: 11px&quot;&gt;&lt;p style=&quot;margin: 0px 0px 0px 4px ; font-size: 11px&quot;&gt;&lt;font style=&quot;font-size: 11px&quot;&gt;+ userName : String&lt;/font&gt;&lt;/p&gt;&lt;p style=&quot;margin: 0px 0px 0px 4px ; font-size: 11px&quot;&gt;&lt;font style=&quot;font-size: 11px&quot;&gt;+ password : String&lt;br&gt;&lt;/font&gt;&lt;/p&gt;&lt;p style=&quot;margin: 0px 0px 0px 4px ; font-size: 11px&quot;&gt;&lt;font style=&quot;font-size: 11px&quot;&gt;+ passwordSalt : String&lt;br&gt;&lt;/font&gt;&lt;/p&gt;&lt;p style=&quot;margin: 0px 0px 0px 4px ; font-size: 11px&quot;&gt;&lt;font style=&quot;font-size: 11px&quot;&gt;+ roles : list&amp;lt;Role&amp;gt;&lt;/font&gt;&lt;/p&gt;&lt;hr style=&quot;font-size: 11px&quot;&gt;&lt;p style=&quot;margin: 0px 0px 0px 4px ; font-size: 11px&quot;&gt;&lt;font style=&quot;font-size: 11px&quot;&gt;+&amp;nbsp;&lt;span lang=&quot;EN-US&quot;&gt;setUserName&lt;/span&gt;(String name): void&lt;/font&gt;&lt;/p&gt;&lt;p style=&quot;margin: 0px 0px 0px 4px ; font-size: 11px&quot;&gt;&lt;font style=&quot;font-size: 11px&quot;&gt;+&amp;nbsp;&lt;span lang=&quot;EN-US&quot;&gt;setPassword&lt;/span&gt;(String psw): void&lt;br&gt;&lt;/font&gt;&lt;/p&gt;&lt;p style=&quot;margin: 0px 0px 0px 4px ; font-size: 11px&quot;&gt;&lt;font style=&quot;font-size: 11px&quot;&gt;+&amp;nbsp;&lt;span lang=&quot;EN-US&quot;&gt;setPasswordSalt&lt;/span&gt;(String salt): void&lt;br&gt;&lt;/font&gt;&lt;/p&gt;&lt;p style=&quot;margin: 0px 0px 0px 4px ; font-size: 11px&quot;&gt;&lt;font style=&quot;font-size: 11px&quot;&gt;+&amp;nbsp;&lt;span lang=&quot;EN-US&quot;&gt;setRoles&lt;/span&gt;(List&amp;lt;AmsRole&amp;gt; roles): List&amp;lt;AmsRole&amp;gt;&lt;/font&gt;&lt;/p&gt;&lt;br&gt;" style="verticalAlign=top;align=left;overflow=fill;fontSize=10.5;fontFamily=Times new Roman;html=1;strokeWidth=1;" parent="WVCPOKXCLXuoi2PYIQQJ-1" vertex="1">
          <mxGeometry x="-867" y="786" width="283" height="165" as="geometry"/>
        </mxCell>
        <mxCell id="kM1Ig4bHRmuJbyG__2Mf-1" value="&lt;p style=&quot;margin: 4px 0px 0px ; text-align: center ; font-size: 11px&quot;&gt;&lt;span lang=&quot;EN-US&quot;&gt;AmsRole&lt;/span&gt;&lt;br&gt;&lt;/p&gt;&lt;hr style=&quot;font-size: 11px&quot;&gt;&lt;p style=&quot;margin: 0px 0px 0px 4px ; font-size: 11px&quot;&gt;&lt;font style=&quot;font-size: 11px&quot;&gt;+ id: int&lt;/font&gt;&lt;/p&gt;&lt;p style=&quot;margin: 0px 0px 0px 4px ; font-size: 11px&quot;&gt;&lt;font style=&quot;font-size: 11px&quot;&gt;+ name: String&lt;/font&gt;&lt;/p&gt;&lt;hr style=&quot;font-size: 11px&quot;&gt;&lt;p style=&quot;margin: 0px 0px 0px 4px ; font-size: 11px&quot;&gt;&lt;font style=&quot;font-size: 11px&quot;&gt;+&amp;nbsp;&lt;span lang=&quot;EN-US&quot;&gt;setId&lt;/span&gt;(int id): void&lt;/font&gt;&lt;/p&gt;&lt;p style=&quot;margin: 0px 0px 0px 4px ; font-size: 11px&quot;&gt;&lt;font style=&quot;font-size: 11px&quot;&gt;+&amp;nbsp;&lt;span lang=&quot;EN-US&quot;&gt;setName&lt;/span&gt;(String name): void&lt;/font&gt;&lt;/p&gt;&lt;br&gt;" style="verticalAlign=top;align=left;overflow=fill;fontSize=10.5;fontFamily=Times new Roman;html=1;strokeWidth=1;" parent="WVCPOKXCLXuoi2PYIQQJ-1" vertex="1">
          <mxGeometry x="-976" y="979" width="158" height="113" as="geometry"/>
        </mxCell>
        <mxCell id="kM1Ig4bHRmuJbyG__2Mf-2" value="Relation" style="endArrow=open;html=1;endSize=12;startArrow=diamondThin;startSize=14;startFill=0;edgeStyle=orthogonalEdgeStyle;strokeWidth=1;fontFamily=Times new Roman;fontSize=10.5;entryX=0.01;entryY=0.445;entryDx=0;entryDy=0;entryPerimeter=0;exitX=0.488;exitY=0.006;exitDx=0;exitDy=0;exitPerimeter=0;" parent="WVCPOKXCLXuoi2PYIQQJ-1" source="kM1Ig4bHRmuJbyG__2Mf-1" target="kM1Ig4bHRmuJbyG__2Mf-0" edge="1">
          <mxGeometry relative="1" as="geometry">
            <mxPoint x="-998" y="964" as="sourcePoint"/>
            <mxPoint x="-1017" y="785.5" as="targetPoint"/>
            <Array as="points">
              <mxPoint x="-899" y="859"/>
            </Array>
          </mxGeometry>
        </mxCell>
        <mxCell id="kM1Ig4bHRmuJbyG__2Mf-3" value="0..n" style="resizable=0;html=1;align=left;verticalAlign=top;labelBackgroundColor=#ffffff;fontSize=10.5;fontFamily=Times new Roman;" parent="kM1Ig4bHRmuJbyG__2Mf-2" connectable="0" vertex="1">
          <mxGeometry x="-1" relative="1" as="geometry">
            <mxPoint y="-48" as="offset"/>
          </mxGeometry>
        </mxCell>
        <mxCell id="kM1Ig4bHRmuJbyG__2Mf-4" value="1" style="resizable=0;html=1;align=right;verticalAlign=top;labelBackgroundColor=#ffffff;fontSize=10.5;fontFamily=Times new Roman;" parent="kM1Ig4bHRmuJbyG__2Mf-2" connectable="0" vertex="1">
          <mxGeometry x="1" relative="1" as="geometry">
            <mxPoint x="-32" y="-21" as="offset"/>
          </mxGeometry>
        </mxCell>
        <mxCell id="kM1Ig4bHRmuJbyG__2Mf-5" value="&lt;p style=&quot;margin: 4px 0px 0px ; text-align: center ; font-size: 11px&quot;&gt;&lt;span lang=&quot;EN-US&quot;&gt;AmsPerMissioin&lt;/span&gt;&lt;br&gt;&lt;/p&gt;&lt;hr style=&quot;font-size: 11px&quot;&gt;&lt;p style=&quot;margin: 0px 0px 0px 4px ; font-size: 11px&quot;&gt;&lt;font style=&quot;font-size: 11px&quot;&gt;+ id : int&lt;/font&gt;&lt;/p&gt;&lt;p style=&quot;margin: 0px 0px 0px 4px ; font-size: 11px&quot;&gt;&lt;font style=&quot;font-size: 11px&quot;&gt;+ name : String&lt;/font&gt;&lt;/p&gt;&lt;p style=&quot;margin: 0px 0px 0px 4px ; font-size: 11px&quot;&gt;&lt;font style=&quot;font-size: 11px&quot;&gt;+ uri : String&lt;br&gt;&lt;/font&gt;&lt;/p&gt;&lt;hr style=&quot;font-size: 11px&quot;&gt;&lt;p style=&quot;margin: 0px 0px 0px 4px ; font-size: 11px&quot;&gt;&lt;font style=&quot;font-size: 11px&quot;&gt;+&amp;nbsp;&lt;span lang=&quot;EN-US&quot;&gt;setId&lt;/span&gt;(int id): void&lt;/font&gt;&lt;/p&gt;&lt;p style=&quot;margin: 0px 0px 0px 4px ; font-size: 11px&quot;&gt;&lt;font style=&quot;font-size: 11px&quot;&gt;+&amp;nbsp;&lt;span lang=&quot;EN-US&quot;&gt;setName&lt;/span&gt;(String name): void&lt;/font&gt;&lt;/p&gt;&lt;p style=&quot;margin: 0px 0px 0px 4px ; font-size: 11px&quot;&gt;&lt;font style=&quot;font-size: 11px&quot;&gt;+ setUrl(String uri): void&lt;/font&gt;&lt;/p&gt;&lt;br&gt;" style="verticalAlign=top;align=left;overflow=fill;fontSize=10.5;fontFamily=Times new Roman;html=1;strokeWidth=1;" parent="WVCPOKXCLXuoi2PYIQQJ-1" vertex="1">
          <mxGeometry x="-647" y="971" width="167" height="143" as="geometry"/>
        </mxCell>
        <mxCell id="kM1Ig4bHRmuJbyG__2Mf-6" value="Relation" style="endArrow=open;html=1;endSize=12;startArrow=diamondThin;startSize=14;startFill=0;edgeStyle=orthogonalEdgeStyle;strokeWidth=1;fontFamily=Times new Roman;fontSize=10.5;entryX=0.999;entryY=0.602;entryDx=0;entryDy=0;entryPerimeter=0;" parent="WVCPOKXCLXuoi2PYIQQJ-1" target="kM1Ig4bHRmuJbyG__2Mf-1" edge="1">
          <mxGeometry relative="1" as="geometry">
            <mxPoint x="-645" y="1047" as="sourcePoint"/>
            <mxPoint x="-703.9761904761905" y="1004.8333333333333" as="targetPoint"/>
            <Array as="points">
              <mxPoint x="-727" y="1047"/>
              <mxPoint x="-727" y="1046"/>
              <mxPoint x="-804" y="1046"/>
              <mxPoint x="-804" y="1047"/>
            </Array>
          </mxGeometry>
        </mxCell>
        <mxCell id="kM1Ig4bHRmuJbyG__2Mf-7" value="0..n" style="resizable=0;html=1;align=left;verticalAlign=top;labelBackgroundColor=#ffffff;fontSize=10.5;fontFamily=Times new Roman;" parent="kM1Ig4bHRmuJbyG__2Mf-6" connectable="0" vertex="1">
          <mxGeometry x="-1" relative="1" as="geometry">
            <mxPoint x="-57" y="-26" as="offset"/>
          </mxGeometry>
        </mxCell>
        <mxCell id="kM1Ig4bHRmuJbyG__2Mf-8" value="1" style="resizable=0;html=1;align=right;verticalAlign=top;labelBackgroundColor=#ffffff;fontSize=10.5;fontFamily=Times new Roman;" parent="kM1Ig4bHRmuJbyG__2Mf-6" connectable="0" vertex="1">
          <mxGeometry x="1" relative="1" as="geometry">
            <mxPoint x="27.5" y="-4" as="offset"/>
          </mxGeometry>
        </mxCell>
      </root>
    </mxGraphModel>
  </diagram>
  <diagram id="vVZ1XhKywa58sma0drzA" name="Page-5">
    <mxGraphModel dx="1381" dy="352" grid="0" gridSize="10" guides="1" tooltips="1" connect="1" arrows="1" fold="1" page="0" pageScale="1" pageWidth="827" pageHeight="1169" math="0" shadow="0">
      <root>
        <mxCell id="BgZBqPnPrOkgnieKWobT-0"/>
        <mxCell id="BgZBqPnPrOkgnieKWobT-1" parent="BgZBqPnPrOkgnieKWobT-0"/>
        <mxCell id="TcQ8ES78MSyUjVICjfVy-1" value="&lt;p style=&quot;margin: 4px 0px 0px ; text-align: center&quot;&gt;&lt;span lang=&quot;EN-US&quot;&gt;&lt;font style=&quot;font-size: 14px&quot;&gt;AmsBuoy&lt;/font&gt;&lt;/span&gt;&lt;br&gt;&lt;/p&gt;&lt;hr style=&quot;font-size: 11px&quot;&gt;&lt;p style=&quot;margin: 0px 0px 0px 4px ; font-size: 14px&quot;&gt;&lt;font style=&quot;font-size: 14px&quot;&gt;+ num: String&lt;/font&gt;&lt;/p&gt;&lt;p style=&quot;margin: 0px 0px 0px 4px ; font-size: 14px&quot;&gt;&lt;font style=&quot;font-size: 14px&quot;&gt;+ model: String&lt;br&gt;&lt;/font&gt;&lt;/p&gt;&lt;p style=&quot;margin: 0px 0px 0px 4px ; font-size: 14px&quot;&gt;&lt;font style=&quot;font-size: 14px&quot;&gt;+ highStake: Double&lt;br&gt;&lt;/font&gt;&lt;/p&gt;&lt;p style=&quot;margin: 0px 0px 0px 4px ; font-size: 14px&quot;&gt;&lt;font style=&quot;font-size: 14px&quot;&gt;+ highLight: Double&lt;/font&gt;&lt;/p&gt;&lt;p style=&quot;margin: 0px 0px 0px 4px ; font-size: 14px&quot;&gt;&lt;font style=&quot;font-size: 14px&quot;&gt;+ quality: String&lt;br&gt;&lt;/font&gt;&lt;/p&gt;&lt;p style=&quot;margin: 0px 0px 0px 4px ; font-size: 14px&quot;&gt;&lt;font style=&quot;font-size: 14px&quot;&gt;+ range: Double&lt;br&gt;&lt;/font&gt;&lt;/p&gt;&lt;p style=&quot;margin: 0px 0px 0px 4px ; font-size: 14px&quot;&gt;&lt;font style=&quot;font-size: 14px&quot;&gt;+ constitution: String&lt;br&gt;&lt;/font&gt;&lt;/p&gt;&lt;p style=&quot;margin: 0px 0px 0px 4px ; font-size: 14px&quot;&gt;&lt;font style=&quot;font-size: 14px&quot;&gt;+ power: Double&lt;br&gt;&lt;/font&gt;&lt;/p&gt;&lt;p style=&quot;margin: 0px 0px 0px 4px ; font-size: 14px&quot;&gt;&lt;font style=&quot;font-size: 14px&quot;&gt;+ powerType: String&lt;br&gt;&lt;/font&gt;&lt;/p&gt;&lt;p style=&quot;margin: 0px 0px 0px 4px ; font-size: 14px&quot;&gt;&lt;font style=&quot;font-size: 14px&quot;&gt;+ manufacturer:String&lt;br&gt;&lt;/font&gt;&lt;/p&gt;&lt;p style=&quot;margin: 0px 0px 0px 4px ; font-size: 14px&quot;&gt;&lt;font style=&quot;font-size: 14px&quot;&gt;+ createdate: Date&lt;/font&gt;&lt;/p&gt;&lt;hr style=&quot;font-size: 11px&quot;&gt;&lt;p style=&quot;margin: 0px 0px 0px 4px ; font-size: 11px&quot;&gt;&lt;br&gt;&lt;/p&gt;" style="verticalAlign=top;align=left;overflow=fill;fontSize=10.5;fontFamily=Times new Roman;html=1;strokeWidth=1;" parent="BgZBqPnPrOkgnieKWobT-1" vertex="1">
          <mxGeometry x="-594" y="475" width="288" height="217" as="geometry"/>
        </mxCell>
        <mxCell id="Nbfqu5bM2LD2DpUpRzRC-0" value="&lt;p style=&quot;margin: 4px 0px 0px ; text-align: center&quot;&gt;&lt;span lang=&quot;EN-US&quot;&gt;&lt;font style=&quot;font-size: 14px&quot;&gt;AmsChain&lt;/font&gt;&lt;/span&gt;&lt;br&gt;&lt;/p&gt;&lt;hr style=&quot;font-size: 11px&quot;&gt;&lt;p style=&quot;margin: 0px 0px 0px 4px ; font-size: 14px&quot;&gt;&lt;font style=&quot;font-size: 14px&quot;&gt;+ id: Integer&lt;br&gt;&lt;/font&gt;&lt;/p&gt;&lt;p style=&quot;margin: 0px 0px 0px 4px ; font-size: 14px&quot;&gt;&lt;font style=&quot;font-size: 14px&quot;&gt;+ num: String&lt;/font&gt;&lt;/p&gt;&lt;p style=&quot;margin: 0px 0px 0px 4px ; font-size: 14px&quot;&gt;&lt;font style=&quot;font-size: 14px&quot;&gt;+ name: String&lt;br&gt;&lt;/font&gt;&lt;/p&gt;&lt;p style=&quot;margin: 0px 0px 0px 4px ; font-size: 14px&quot;&gt;&lt;font style=&quot;font-size: 14px&quot;&gt;+ radius: Double&lt;/font&gt;&lt;/p&gt;&lt;p style=&quot;margin: 0px 0px 0px 4px ; font-size: 14px&quot;&gt;&lt;font style=&quot;font-size: 14px&quot;&gt;+ type:String&lt;/font&gt;&lt;/p&gt;&lt;p style=&quot;margin: 0px 0px 0px 4px ; font-size: 14px&quot;&gt;&lt;font style=&quot;font-size: 14px&quot;&gt;+ is_predeploy: Boolean&lt;/font&gt;&lt;/p&gt;&lt;p style=&quot;margin: 0px 0px 0px 4px ; font-size: 14px&quot;&gt;&lt;font style=&quot;font-size: 14px&quot;&gt;+ is_verify: Boolean&lt;br&gt;&lt;/font&gt;&lt;/p&gt;&lt;p style=&quot;margin: 0px 0px 0px 4px ; font-size: 14px&quot;&gt;&lt;font style=&quot;font-size: 14px&quot;&gt;+ note: String&lt;br&gt;&lt;/font&gt;&lt;/p&gt;&lt;p style=&quot;margin: 0px 0px 0px 4px ; font-size: 14px&quot;&gt;&lt;font style=&quot;font-size: 14px&quot;&gt;+ is_delete: Double&lt;/font&gt;&lt;/p&gt;&lt;p style=&quot;margin: 0px 0px 0px 4px ; font-size: 14px&quot;&gt;&lt;font style=&quot;font-size: 14px&quot;&gt;+ manufacturer:String&lt;br&gt;&lt;/font&gt;&lt;/p&gt;&lt;p style=&quot;margin: 0px 0px 0px 4px ; font-size: 14px&quot;&gt;&lt;font style=&quot;font-size: 14px&quot;&gt;+ createdate: Date&lt;/font&gt;&lt;/p&gt;&lt;p style=&quot;margin: 0px 0px 0px 4px ; font-size: 14px&quot;&gt;&lt;font style=&quot;font-size: 14px&quot;&gt;&lt;br&gt;&lt;/font&gt;&lt;/p&gt;&lt;p style=&quot;margin: 0px 0px 0px 4px ; font-size: 14px&quot;&gt;&lt;font style=&quot;font-size: 14px&quot;&gt;&lt;br&gt;&lt;/font&gt;&lt;/p&gt;&lt;p style=&quot;margin: 0px 0px 0px 4px ; font-size: 14px&quot;&gt;&lt;font style=&quot;font-size: 14px&quot;&gt;&lt;br&gt;&lt;/font&gt;&lt;/p&gt;&lt;hr style=&quot;font-size: 11px&quot;&gt;&lt;p style=&quot;margin: 0px 0px 0px 4px ; font-size: 11px&quot;&gt;&lt;br&gt;&lt;/p&gt;" style="verticalAlign=top;align=left;overflow=fill;fontSize=10.5;fontFamily=Times new Roman;html=1;strokeWidth=1;" vertex="1" parent="BgZBqPnPrOkgnieKWobT-1">
          <mxGeometry x="-597" y="857" width="288" height="234" as="geometry"/>
        </mxCell>
        <mxCell id="Nbfqu5bM2LD2DpUpRzRC-1" style="edgeStyle=orthogonalEdgeStyle;rounded=0;orthogonalLoop=1;jettySize=auto;html=1;exitX=0.5;exitY=1;exitDx=0;exitDy=0;" edge="1" parent="BgZBqPnPrOkgnieKWobT-1" source="Nbfqu5bM2LD2DpUpRzRC-0" target="Nbfqu5bM2LD2DpUpRzRC-0">
          <mxGeometry relative="1" as="geometry"/>
        </mxCell>
      </root>
    </mxGraphModel>
  </diagram>
  <diagram id="pbRwHMrEdkwkR5qc46Dk" name="第 5 页">
    <mxGraphModel dx="581" dy="752" grid="0" gridSize="10" guides="1" tooltips="1" connect="1" arrows="1" fold="1" page="0" pageScale="1" pageWidth="827" pageHeight="1169" math="0" shadow="0">
      <root>
        <mxCell id="be51J8vFAIibEUHUbRv1-0"/>
        <mxCell id="be51J8vFAIibEUHUbRv1-1" parent="be51J8vFAIibEUHUbRv1-0"/>
        <mxCell id="be51J8vFAIibEUHUbRv1-10" style="edgeStyle=orthogonalEdgeStyle;rounded=0;orthogonalLoop=1;jettySize=auto;html=1;exitX=0.5;exitY=1;exitDx=0;exitDy=0;exitPerimeter=0;entryX=0.5;entryY=0;entryDx=0;entryDy=0;fontFamily=宋体;" parent="be51J8vFAIibEUHUbRv1-1" source="be51J8vFAIibEUHUbRv1-2" target="be51J8vFAIibEUHUbRv1-6" edge="1">
          <mxGeometry relative="1" as="geometry"/>
        </mxCell>
        <mxCell id="be51J8vFAIibEUHUbRv1-2" value="贴有标签的灯浮标链系" style="strokeWidth=1;html=1;shape=mxgraph.flowchart.start_1;whiteSpace=wrap;fontFamily=宋体;" parent="be51J8vFAIibEUHUbRv1-1" vertex="1">
          <mxGeometry x="323" y="65" width="134" height="49" as="geometry"/>
        </mxCell>
        <mxCell id="qhQlT7eQYrYswVT_mUBW-1" style="edgeStyle=orthogonalEdgeStyle;rounded=0;orthogonalLoop=1;jettySize=auto;html=1;exitX=0.5;exitY=1;exitDx=0;exitDy=0;entryX=0.5;entryY=0;entryDx=0;entryDy=0;fontFamily=宋体;" parent="be51J8vFAIibEUHUbRv1-1" source="be51J8vFAIibEUHUbRv1-6" target="qhQlT7eQYrYswVT_mUBW-0" edge="1">
          <mxGeometry relative="1" as="geometry"/>
        </mxCell>
        <mxCell id="be51J8vFAIibEUHUbRv1-6" value="手持扫描枪扫描识别标签" style="rounded=0;whiteSpace=wrap;html=1;strokeWidth=1;fontFamily=宋体;" parent="be51J8vFAIibEUHUbRv1-1" vertex="1">
          <mxGeometry x="330" y="141" width="120" height="45" as="geometry"/>
        </mxCell>
        <mxCell id="be51J8vFAIibEUHUbRv1-13" style="edgeStyle=orthogonalEdgeStyle;rounded=0;orthogonalLoop=1;jettySize=auto;html=1;exitX=0.5;exitY=1;exitDx=0;exitDy=0;entryX=0.5;entryY=0;entryDx=0;entryDy=0;entryPerimeter=0;fontFamily=宋体;" parent="be51J8vFAIibEUHUbRv1-1" source="be51J8vFAIibEUHUbRv1-7" target="be51J8vFAIibEUHUbRv1-8" edge="1">
          <mxGeometry relative="1" as="geometry"/>
        </mxCell>
        <mxCell id="be51J8vFAIibEUHUbRv1-7" value="更新链系生命周期信息" style="rounded=0;whiteSpace=wrap;html=1;strokeWidth=1;fontFamily=宋体;" parent="be51J8vFAIibEUHUbRv1-1" vertex="1">
          <mxGeometry x="330" y="306" width="120" height="44" as="geometry"/>
        </mxCell>
        <mxCell id="be51J8vFAIibEUHUbRv1-8" value="完成灯浮标链系识别" style="strokeWidth=1;html=1;shape=mxgraph.flowchart.start_1;whiteSpace=wrap;fontFamily=宋体;" parent="be51J8vFAIibEUHUbRv1-1" vertex="1">
          <mxGeometry x="323" y="380" width="134" height="49" as="geometry"/>
        </mxCell>
        <mxCell id="qhQlT7eQYrYswVT_mUBW-2" style="edgeStyle=orthogonalEdgeStyle;rounded=0;orthogonalLoop=1;jettySize=auto;html=1;exitX=0.5;exitY=1;exitDx=0;exitDy=0;entryX=0.5;entryY=0;entryDx=0;entryDy=0;fontFamily=宋体;" parent="be51J8vFAIibEUHUbRv1-1" source="qhQlT7eQYrYswVT_mUBW-0" target="be51J8vFAIibEUHUbRv1-7" edge="1">
          <mxGeometry relative="1" as="geometry"/>
        </mxCell>
        <mxCell id="qhQlT7eQYrYswVT_mUBW-0" value="设置灯浮标链系状态为未部署" style="rounded=0;whiteSpace=wrap;html=1;strokeWidth=1;fontFamily=宋体;" parent="be51J8vFAIibEUHUbRv1-1" vertex="1">
          <mxGeometry x="330" y="223" width="120" height="53" as="geometry"/>
        </mxCell>
      </root>
    </mxGraphModel>
  </diagram>
  <diagram id="1gGnf2t-F_wxefUr3DYH" name="第 6 页">
    <mxGraphModel dx="581" dy="752" grid="0" gridSize="10" guides="1" tooltips="1" connect="1" arrows="1" fold="1" page="0" pageScale="1" pageWidth="827" pageHeight="1169" math="0" shadow="0">
      <root>
        <mxCell id="MsF_Lz4Cc8-1dzThaK7d-0"/>
        <mxCell id="MsF_Lz4Cc8-1dzThaK7d-1" parent="MsF_Lz4Cc8-1dzThaK7d-0"/>
        <mxCell id="NRRoV59qs7utZ5wuynpo-2" style="edgeStyle=orthogonalEdgeStyle;rounded=0;orthogonalLoop=1;jettySize=auto;html=1;exitX=0.5;exitY=1;exitDx=0;exitDy=0;exitPerimeter=0;fontFamily=宋体;" parent="MsF_Lz4Cc8-1dzThaK7d-1" source="SC5tM48ACPPWJPMMywhx-1" edge="1">
          <mxGeometry relative="1" as="geometry">
            <mxPoint x="390" y="94" as="targetPoint"/>
          </mxGeometry>
        </mxCell>
        <mxCell id="SC5tM48ACPPWJPMMywhx-1" value="未部署的链系" style="strokeWidth=1;html=1;shape=mxgraph.flowchart.start_1;whiteSpace=wrap;fontFamily=宋体;" parent="MsF_Lz4Cc8-1dzThaK7d-1" vertex="1">
          <mxGeometry x="331" y="28" width="118" height="47" as="geometry"/>
        </mxCell>
        <mxCell id="NRRoV59qs7utZ5wuynpo-18" style="edgeStyle=orthogonalEdgeStyle;rounded=0;orthogonalLoop=1;jettySize=auto;html=1;exitX=0.5;exitY=1;exitDx=0;exitDy=0;entryX=0.5;entryY=0;entryDx=0;entryDy=0;entryPerimeter=0;fontFamily=宋体;" parent="MsF_Lz4Cc8-1dzThaK7d-1" source="SC5tM48ACPPWJPMMywhx-5" target="SC5tM48ACPPWJPMMywhx-6" edge="1">
          <mxGeometry relative="1" as="geometry"/>
        </mxCell>
        <mxCell id="SC5tM48ACPPWJPMMywhx-5" value="系统自动初始化灯浮标链系生命周期信息以及部署信息" style="rounded=0;whiteSpace=wrap;html=1;strokeWidth=1;fontFamily=宋体;" parent="MsF_Lz4Cc8-1dzThaK7d-1" vertex="1">
          <mxGeometry x="359" y="278.5" width="120" height="60" as="geometry"/>
        </mxCell>
        <mxCell id="SC5tM48ACPPWJPMMywhx-6" value="完成灯浮标链系部署" style="strokeWidth=1;html=1;shape=mxgraph.flowchart.start_1;whiteSpace=wrap;fontFamily=宋体;" parent="MsF_Lz4Cc8-1dzThaK7d-1" vertex="1">
          <mxGeometry x="346.5" y="406" width="145" height="49" as="geometry"/>
        </mxCell>
        <mxCell id="NRRoV59qs7utZ5wuynpo-3" style="edgeStyle=orthogonalEdgeStyle;rounded=0;orthogonalLoop=1;jettySize=auto;html=1;exitX=0;exitY=0.5;exitDx=0;exitDy=0;fontFamily=宋体;entryX=0.5;entryY=0;entryDx=0;entryDy=0;" parent="MsF_Lz4Cc8-1dzThaK7d-1" source="NRRoV59qs7utZ5wuynpo-0" target="NRRoV59qs7utZ5wuynpo-14" edge="1">
          <mxGeometry relative="1" as="geometry">
            <mxPoint x="266" y="186" as="targetPoint"/>
          </mxGeometry>
        </mxCell>
        <mxCell id="NRRoV59qs7utZ5wuynpo-4" value="是" style="text;html=1;resizable=0;points=[];align=center;verticalAlign=middle;labelBackgroundColor=#ffffff;fontFamily=宋体;" parent="NRRoV59qs7utZ5wuynpo-3" vertex="1" connectable="0">
          <mxGeometry x="-0.1892" y="-3" relative="1" as="geometry">
            <mxPoint x="18" y="-7" as="offset"/>
          </mxGeometry>
        </mxCell>
        <mxCell id="NRRoV59qs7utZ5wuynpo-5" style="edgeStyle=orthogonalEdgeStyle;rounded=0;orthogonalLoop=1;jettySize=auto;html=1;exitX=1;exitY=0.5;exitDx=0;exitDy=0;fontFamily=宋体;entryX=0.5;entryY=0;entryDx=0;entryDy=0;" parent="MsF_Lz4Cc8-1dzThaK7d-1" source="NRRoV59qs7utZ5wuynpo-0" target="NRRoV59qs7utZ5wuynpo-7" edge="1">
          <mxGeometry relative="1" as="geometry">
            <mxPoint x="528" y="179" as="targetPoint"/>
          </mxGeometry>
        </mxCell>
        <mxCell id="NRRoV59qs7utZ5wuynpo-0" value="是否匹配电子标签" style="rhombus;whiteSpace=wrap;html=1;strokeWidth=1;fontFamily=宋体;" parent="MsF_Lz4Cc8-1dzThaK7d-1" vertex="1">
          <mxGeometry x="320" y="95" width="142" height="68" as="geometry"/>
        </mxCell>
        <mxCell id="NRRoV59qs7utZ5wuynpo-6" value="否" style="text;html=1;resizable=0;points=[];autosize=1;align=left;verticalAlign=top;spacingTop=-4;fontFamily=宋体;" parent="MsF_Lz4Cc8-1dzThaK7d-1" vertex="1">
          <mxGeometry x="479" y="111" width="22" height="14" as="geometry"/>
        </mxCell>
        <mxCell id="NRRoV59qs7utZ5wuynpo-8" style="edgeStyle=orthogonalEdgeStyle;rounded=0;orthogonalLoop=1;jettySize=auto;html=1;exitX=0;exitY=0.5;exitDx=0;exitDy=0;fontFamily=宋体;entryX=0.5;entryY=0;entryDx=0;entryDy=0;" parent="MsF_Lz4Cc8-1dzThaK7d-1" source="NRRoV59qs7utZ5wuynpo-7" target="SC5tM48ACPPWJPMMywhx-5" edge="1">
          <mxGeometry relative="1" as="geometry">
            <mxPoint x="407" y="269" as="targetPoint"/>
            <Array as="points">
              <mxPoint x="419" y="206"/>
            </Array>
          </mxGeometry>
        </mxCell>
        <mxCell id="NRRoV59qs7utZ5wuynpo-10" style="edgeStyle=orthogonalEdgeStyle;rounded=0;orthogonalLoop=1;jettySize=auto;html=1;exitX=1;exitY=0.5;exitDx=0;exitDy=0;fontFamily=宋体;" parent="MsF_Lz4Cc8-1dzThaK7d-1" source="NRRoV59qs7utZ5wuynpo-7" target="NRRoV59qs7utZ5wuynpo-12" edge="1">
          <mxGeometry relative="1" as="geometry">
            <mxPoint x="650" y="271" as="targetPoint"/>
            <Array as="points">
              <mxPoint x="626" y="206"/>
            </Array>
          </mxGeometry>
        </mxCell>
        <mxCell id="NRRoV59qs7utZ5wuynpo-7" value="是否自动匹配" style="rhombus;whiteSpace=wrap;html=1;strokeWidth=1;fontFamily=宋体;" parent="MsF_Lz4Cc8-1dzThaK7d-1" vertex="1">
          <mxGeometry x="457" y="178" width="142" height="55" as="geometry"/>
        </mxCell>
        <mxCell id="NRRoV59qs7utZ5wuynpo-9" value="自动" style="text;html=1;resizable=0;points=[];autosize=1;align=left;verticalAlign=top;spacingTop=-4;fontFamily=宋体;" parent="MsF_Lz4Cc8-1dzThaK7d-1" vertex="1">
          <mxGeometry x="423" y="183" width="34" height="14" as="geometry"/>
        </mxCell>
        <mxCell id="NRRoV59qs7utZ5wuynpo-11" value="手动" style="text;html=1;resizable=0;points=[];autosize=1;align=left;verticalAlign=top;spacingTop=-4;fontFamily=宋体;" parent="MsF_Lz4Cc8-1dzThaK7d-1" vertex="1">
          <mxGeometry x="599" y="185" width="34" height="14" as="geometry"/>
        </mxCell>
        <mxCell id="NRRoV59qs7utZ5wuynpo-19" style="edgeStyle=orthogonalEdgeStyle;rounded=0;orthogonalLoop=1;jettySize=auto;html=1;entryX=0.5;entryY=0;entryDx=0;entryDy=0;entryPerimeter=0;fontFamily=宋体;" parent="MsF_Lz4Cc8-1dzThaK7d-1" source="NRRoV59qs7utZ5wuynpo-12" target="SC5tM48ACPPWJPMMywhx-6" edge="1">
          <mxGeometry relative="1" as="geometry">
            <Array as="points">
              <mxPoint x="627" y="378"/>
              <mxPoint x="419" y="378"/>
            </Array>
          </mxGeometry>
        </mxCell>
        <mxCell id="NRRoV59qs7utZ5wuynpo-12" value="操作者手动初始化灯浮标链系生命周期信息以及部署信息" style="rounded=0;whiteSpace=wrap;html=1;strokeWidth=1;fontFamily=宋体;" parent="MsF_Lz4Cc8-1dzThaK7d-1" vertex="1">
          <mxGeometry x="567" y="278.5" width="120" height="60" as="geometry"/>
        </mxCell>
        <mxCell id="NRRoV59qs7utZ5wuynpo-16" style="edgeStyle=orthogonalEdgeStyle;rounded=0;orthogonalLoop=1;jettySize=auto;html=1;exitX=0.5;exitY=1;exitDx=0;exitDy=0;entryX=0.5;entryY=0;entryDx=0;entryDy=0;fontFamily=宋体;" parent="MsF_Lz4Cc8-1dzThaK7d-1" source="NRRoV59qs7utZ5wuynpo-14" target="NRRoV59qs7utZ5wuynpo-15" edge="1">
          <mxGeometry relative="1" as="geometry"/>
        </mxCell>
        <mxCell id="NRRoV59qs7utZ5wuynpo-14" value="扫描识别链系生命周期信息" style="rounded=0;whiteSpace=wrap;html=1;strokeWidth=1;fontFamily=宋体;" parent="MsF_Lz4Cc8-1dzThaK7d-1" vertex="1">
          <mxGeometry x="211" y="183" width="120" height="49" as="geometry"/>
        </mxCell>
        <mxCell id="NRRoV59qs7utZ5wuynpo-17" style="edgeStyle=orthogonalEdgeStyle;rounded=0;orthogonalLoop=1;jettySize=auto;html=1;exitX=0.5;exitY=1;exitDx=0;exitDy=0;entryX=0.5;entryY=0;entryDx=0;entryDy=0;entryPerimeter=0;fontFamily=宋体;" parent="MsF_Lz4Cc8-1dzThaK7d-1" source="NRRoV59qs7utZ5wuynpo-15" target="SC5tM48ACPPWJPMMywhx-6" edge="1">
          <mxGeometry relative="1" as="geometry">
            <Array as="points">
              <mxPoint x="271" y="378"/>
              <mxPoint x="419" y="378"/>
            </Array>
          </mxGeometry>
        </mxCell>
        <mxCell id="NRRoV59qs7utZ5wuynpo-15" value="操作者设置灯浮标链系生命周期状态信息以及部署信息" style="rounded=0;whiteSpace=wrap;html=1;strokeWidth=1;fontFamily=宋体;" parent="MsF_Lz4Cc8-1dzThaK7d-1" vertex="1">
          <mxGeometry x="211" y="278.5" width="120" height="60" as="geometry"/>
        </mxCell>
      </root>
    </mxGraphModel>
  </diagram>
</mxfile>
